STARTFONT 2.1
COMMENT
COMMENT Converted from OpenType font "FreeUniversal-Bold.ttf" by "otf2bdf 3.0".
COMMENT
FONT -FreeType-FreeUniversal-Bold-R-Normal--40-400-72-72-P-198-ISO10646-1
SIZE 40 72 72
FONTBOUNDINGBOX 59 54 -3 -11
STARTPROPERTIES 19
FOUNDRY "FreeType"
FAMILY_NAME "FreeUniversal"
WEIGHT_NAME "Bold"
SLANT "R"
SETWIDTH_NAME "Normal"
ADD_STYLE_NAME ""
PIXEL_SIZE 40
POINT_SIZE 400
RESOLUTION_X 72
RESOLUTION_Y 72
SPACING "P"
AVERAGE_WIDTH 198
CHARSET_REGISTRY "ISO10646"
CHARSET_ENCODING "1"
FONT_ASCENT 42
FONT_DESCENT 10
COPYRIGHT "FreeUniveral (c) Stephen Wilson 2009    Original Font Sil-Sophia  Copyright (c) SIL International, 1994-2008."
_OTF_FONTFILE "FreeUniversal-Bold.ttf"
_OTF_PSNAME "FreeUniversal-Bold"
ENDPROPERTIES
CHARS 243
STARTCHAR 0020
ENCODING 32
SWIDTH 300 0
DWIDTH 12 0
BBX 0 0 0 0
BITMAP
ENDCHAR
STARTCHAR 0021
ENCODING 33
SWIDTH 400 0
DWIDTH 16 0
BBX 5 30 5 0
BITMAP
F8
F8
F8
F8
F8
F8
F8
F8
F8
F8
F8
F8
F8
F8
F8
F8
F8
F8
F8
F8
F8
F8
00
00
00
F8
F8
F8
F8
F8
ENDCHAR
STARTCHAR 0022
ENCODING 34
SWIDTH 525 0
DWIDTH 21 0
BBX 15 12 3 18
BITMAP
FC7E
FC7E
FC7E
FC7E
F87E
F87E
F83C
F83C
783C
783C
783C
783C
ENDCHAR
STARTCHAR 0023
ENCODING 35
SWIDTH 725 0
DWIDTH 29 0
BBX 25 30 2 0
BITMAP
003C1E00
003C1E00
00783C00
00783C00
00783C00
00787800
00F07800
00F07800
0FFFFF80
1FFFFF00
1FFFFF00
1FFFFF00
01E0E000
03C1E000
03C1E000
03C1E000
0783C000
0783C000
7FFFFC00
FFFFF800
FFFFF800
FFFFF800
0F078000
1E0F0000
1E0F0000
1E0F0000
3E1E0000
3C1E0000
3C1E0000
3C1E0000
ENDCHAR
STARTCHAR 0024
ENCODING 36
SWIDTH 575 0
DWIDTH 23 0
BBX 21 37 1 -4
BITMAP
006000
006000
006000
03FE00
0FFF80
1FFFC0
3FFFE0
7F6FE0
7E63F0
7C63F0
7C61F0
7C6000
7C6000
7E6000
7FE000
7FF000
3FFE00
1FFF80
07FFE0
00FFF0
007FF0
0067F8
0061F8
F861F8
F860F8
FC61F8
FC61F8
7E63F0
7FFFF0
3FFFE0
1FFFC0
0FFF80
03FE00
006000
006000
006000
006000
ENDCHAR
STARTCHAR 0025
ENCODING 37
SWIDTH 1025 0
DWIDTH 41 0
BBX 37 30 2 0
BITMAP
07E0007800
1FF800F000
3FFC00F000
7C3E01E000
781E03E000
F00F03C000
F00F07C000
F00F078000
F00F0F0000
F00F0F0000
F00F1E0000
F00F1E0000
781E3C0000
7C3E7C0000
3FFC783F00
1FF8F8FFC0
07E0F1FFE0
0001E3E1F0
0001E3C0F0
0003C78078
0003C78078
0007878078
0007878078
000F078078
001F078078
001E03C0F0
003E03C0F0
003C01F3E0
007801FFC0
0078007F80
ENDCHAR
STARTCHAR 0026
ENCODING 38
SWIDTH 775 0
DWIDTH 31 0
BBX 28 30 2 1
BITMAP
03FF0000
0FFF8000
1FFFC000
3F8FE000
3F07E000
3E03E000
3F07E000
3F07E000
1F0FC000
1F9FC000
0FFF8000
0FFF0000
07FC0000
0FF80000
1FF80F80
3FFC0F80
3F7E0F80
7E7F0F80
7E3F8F80
FC1FCF80
FC0FFF00
F807FF00
F803FF00
FC01FE00
FC00FE00
7E00FE00
7F83FF00
3FFFFF80
1FFFFFE0
07FF87F0
ENDCHAR
STARTCHAR 0027
ENCODING 39
SWIDTH 400 0
DWIDTH 16 0
BBX 6 12 5 18
BITMAP
FC
FC
FC
7C
7C
7C
7C
7C
78
78
78
78
ENDCHAR
STARTCHAR 0028
ENCODING 40
SWIDTH 400 0
DWIDTH 16 0
BBX 9 36 4 -5
BITMAP
0F80
1F00
1F00
1F00
3E00
3E00
3E00
7E00
7C00
7C00
7C00
7C00
FC00
FC00
FC00
FC00
F800
F800
F800
F800
F800
FC00
FC00
FC00
7C00
7C00
7C00
7C00
7E00
3E00
3E00
3E00
1F00
1F00
1F00
0F80
ENDCHAR
STARTCHAR 0029
ENCODING 41
SWIDTH 400 0
DWIDTH 16 0
BBX 8 36 4 -5
BITMAP
F0
F8
78
7C
7C
7C
3E
3E
3E
3F
3F
1F
1F
1F
1F
1F
1F
1F
1F
1F
1F
1F
1F
1F
3F
3F
3F
3E
3E
3E
7C
7C
7C
F8
F8
F0
ENDCHAR
STARTCHAR 002A
ENCODING 42
SWIDTH 650 0
DWIDTH 26 0
BBX 16 16 5 14
BITMAP
0420
1C38
1E78
1E78
0FF0
07E0
E3C7
FFFF
FFFF
F3CF
07E0
0FF0
1E78
1E78
1C38
0420
ENDCHAR
STARTCHAR 002B
ENCODING 43
SWIDTH 1000 0
DWIDTH 40 0
BBX 24 25 8 0
BITMAP
003800
003800
003800
003800
003800
003800
003800
003800
003800
003800
003800
FFFFFF
FFFFFF
FFFFFF
003800
003800
003800
003800
003800
003800
003800
003800
003800
003800
003800
ENDCHAR
STARTCHAR 002C
ENCODING 44
SWIDTH 300 0
DWIDTH 12 0
BBX 8 10 2 -5
BITMAP
1F
1F
3E
3E
3C
7C
78
78
F0
F0
ENDCHAR
STARTCHAR 002D
ENCODING 45
SWIDTH 350 0
DWIDTH 14 0
BBX 10 5 2 8
BITMAP
FFC0
FFC0
FFC0
FFC0
FFC0
ENDCHAR
STARTCHAR 002E
ENCODING 46
SWIDTH 300 0
DWIDTH 12 0
BBX 5 5 4 0
BITMAP
F8
F8
F8
F8
F8
ENDCHAR
STARTCHAR 002F
ENCODING 47
SWIDTH 425 0
DWIDTH 17 0
BBX 13 32 2 -2
BITMAP
0078
0078
0078
00F0
00F0
00F0
01E0
01E0
01E0
03C0
03C0
03C0
03C0
0780
0780
0780
0F00
0F00
0F00
0E00
1E00
1E00
1E00
3C00
3C00
3C00
7800
7800
7800
7800
F000
F000
ENDCHAR
STARTCHAR 0030
ENCODING 48
SWIDTH 575 0
DWIDTH 23 0
BBX 20 30 1 1
BITMAP
03FC00
0FFF00
1FFF80
3F0F80
3E07C0
7C03C0
7C03E0
7C03E0
7C03E0
F801F0
F801F0
F801F0
F801F0
F801F0
F801F0
F801F0
F801F0
F801F0
F801F0
F801F0
F801F0
7C03E0
7C03E0
7C03E0
7C03E0
3E07C0
3F0F80
1FFF80
0FFF00
03FC00
ENDCHAR
STARTCHAR 0031
ENCODING 49
SWIDTH 575 0
DWIDTH 23 0
BBX 12 30 4 0
BITMAP
01F0
03F0
0FF0
3FF0
FFF0
FFF0
FDF0
F9F0
E1F0
81F0
01F0
01F0
01F0
01F0
01F0
01F0
01F0
01F0
01F0
01F0
01F0
01F0
01F0
01F0
01F0
01F0
01F0
01F0
01F0
01F0
ENDCHAR
STARTCHAR 0032
ENCODING 50
SWIDTH 575 0
DWIDTH 23 0
BBX 20 30 1 1
BITMAP
03FF00
07FF80
1FFFC0
1FFFE0
3FFFF0
3F03F0
7E01F0
7E01F0
7C01F0
0001F0
0003F0
0003F0
0007E0
000FE0
000FC0
001F80
003F00
00FE00
01FC00
03F800
07F000
0FE000
3F8000
7F0000
FC0000
FFFFF0
FFFFF0
FFFFF0
FFFFF0
FFFFF0
ENDCHAR
STARTCHAR 0033
ENCODING 51
SWIDTH 575 0
DWIDTH 23 0
BBX 19 30 2 1
BITMAP
07FC00
1FFF00
3FFF80
7FFF80
7FFFC0
FC0FC0
FC07C0
F807C0
0007C0
0007C0
000FC0
003FC0
03FF80
03FE00
03FC00
03FF00
03FF80
001FC0
0007E0
0007E0
0007E0
0003E0
F807E0
FC07E0
FC07C0
7E0FC0
7FFF80
3FFF80
1FFF00
0FFC00
ENDCHAR
STARTCHAR 0034
ENCODING 52
SWIDTH 575 0
DWIDTH 23 0
BBX 21 30 1 0
BITMAP
003F80
003F80
007F80
00FF80
00FF80
01FF80
01FF80
03EF80
03CF80
07CF80
0F8F80
0F8F80
1F0F80
1F0F80
3E0F80
3E0F80
7C0F80
FC0F80
F80F80
FFFFF8
FFFFF8
FFFFF8
FFFFF8
FFFFF8
000F80
000F80
000F80
000F80
000F80
000F80
ENDCHAR
STARTCHAR 0035
ENCODING 53
SWIDTH 575 0
DWIDTH 23 0
BBX 19 30 2 0
BITMAP
7FFFC0
7FFFC0
7FFFC0
7FFFC0
7FFFC0
7C0000
7C0000
7C0000
7C0000
7C0000
7C0000
7CFC00
7DFF00
7FFF80
7FFFC0
7F0FE0
7E07E0
7C03E0
0003E0
0003E0
0003E0
0003E0
0003E0
F807E0
FC07E0
FC0FC0
7FFF80
7FFF80
3FFE00
0FFC00
ENDCHAR
STARTCHAR 0036
ENCODING 54
SWIDTH 575 0
DWIDTH 23 0
BBX 20 30 1 1
BITMAP
03FE00
07FF00
0FFF80
1FFFC0
3FFFC0
3F07E0
7E03E0
7E03E0
7C0000
7C0000
FC0000
F80000
F9FF00
FBFF80
FFFFC0
FF0FE0
FE07E0
FE03F0
FC03F0
FC03F0
FC01F0
FC01F0
7C03F0
7C03F0
7E03E0
3F07E0
3FFFC0
1FFF80
0FFF00
03FE00
ENDCHAR
STARTCHAR 0037
ENCODING 55
SWIDTH 575 0
DWIDTH 23 0
BBX 19 30 2 0
BITMAP
FFFFE0
FFFFE0
FFFFE0
FFFFE0
FFFFE0
0007E0
0007E0
0007C0
000FC0
000FC0
001F80
001F80
003F00
003F00
003F00
007E00
007E00
00FC00
00FC00
01FC00
01F800
01F800
03F000
03F000
07F000
07E000
0FE000
0FC000
0FC000
1FC000
ENDCHAR
STARTCHAR 0038
ENCODING 56
SWIDTH 575 0
DWIDTH 23 0
BBX 20 30 1 1
BITMAP
07FE00
1FFF80
3FFFC0
7FFFE0
7FFFE0
7E07E0
7C03E0
7C03E0
7C03E0
7C03E0
7E07E0
7F0FC0
3FFF80
0FFF00
07FC00
1FFF00
3FFFC0
7F0FE0
7C07E0
FC03F0
FC03F0
F801F0
F803F0
FC03F0
FC03F0
FE07F0
7FFFE0
3FFFC0
1FFF80
0FFF00
ENDCHAR
STARTCHAR 0039
ENCODING 57
SWIDTH 575 0
DWIDTH 23 0
BBX 20 30 1 1
BITMAP
03FC00
0FFF00
1FFF80
3FFFC0
7FFFC0
7E07E0
FC07E0
FC03E0
FC03F0
F803F0
F803F0
FC03F0
FC07F0
7C07F0
7F0FF0
3FFFF0
3FFDF0
1FF9F0
07E1F0
0003F0
0003E0
0003E0
0003E0
7C07E0
7C07C0
7E0FC0
3FFF80
1FFF00
0FFE00
07FC00
ENDCHAR
STARTCHAR 003A
ENCODING 58
SWIDTH 300 0
DWIDTH 12 0
BBX 5 20 5 0
BITMAP
F8
F8
F8
F8
F8
00
00
00
00
00
00
00
00
00
00
F8
F8
F8
F8
F8
ENDCHAR
STARTCHAR 003B
ENCODING 59
SWIDTH 325 0
DWIDTH 13 0
BBX 9 25 2 -5
BITMAP
1F00
1F00
1F00
1F00
1F00
0000
0000
0000
0000
0000
0000
0000
0000
0000
0000
1F80
1F00
3F00
3E00
3E00
7C00
7C00
7800
F800
F000
ENDCHAR
STARTCHAR 003C
ENCODING 60
SWIDTH 1000 0
DWIDTH 40 0
BBX 24 21 8 2
BITMAP
000001
00000F
00003F
0001FC
0007E0
003F00
00FC00
07E000
3F0000
FC0000
E00000
F80000
7E0000
0FC000
03F000
007E00
001FC0
0003F0
00007E
00001F
000003
ENDCHAR
STARTCHAR 003D
ENCODING 61
SWIDTH 1000 0
DWIDTH 40 0
BBX 24 10 8 7
BITMAP
FFFFFF
FFFFFF
FFFFFF
000000
000000
000000
000000
FFFFFF
FFFFFF
FFFFFF
ENDCHAR
STARTCHAR 003E
ENCODING 62
SWIDTH 1000 0
DWIDTH 40 0
BBX 24 21 8 2
BITMAP
800000
F00000
FC0000
3F8000
07E000
00FC00
003F00
0007E0
0000FC
00003F
000007
00001F
00007E
0003F0
000FC0
007E00
03F800
0FC000
7E0000
F80000
C00000
ENDCHAR
STARTCHAR 003F
ENCODING 63
SWIDTH 550 0
DWIDTH 22 0
BBX 18 30 1 1
BITMAP
07FC00
1FFE00
3FFF80
7FFF80
FC0FC0
7807C0
3807C0
0007C0
0007C0
000FC0
000F80
001F80
003F00
007E00
00F800
01F000
03E000
03C000
03C000
03C000
03C000
03C000
000000
000000
000000
03E000
03E000
03E000
03E000
03E000
ENDCHAR
STARTCHAR 0040
ENCODING 64
SWIDTH 1050 0
DWIDTH 42 0
BBX 38 39 2 -8
BITMAP
0003FFE000
001FFFF800
007FFFFE00
00FFFFFF00
03FFFFFF80
07FE007FC0
07F8001FE0
0FE0000FF0
1FC00007F0
3F800003F8
3F01F1F1F8
3F07FDF1FC
7E0FFFF0FC
7E1FFFF0FC
7C1F87F0FC
FC3F03F07C
FC3F03F07C
FC3E01F07C
FC3E01F07C
F83E01F07C
F83E01F07C
F83E01F07C
FC3E01F07C
FC3F03F0FC
7C3F03F8F8
7C1F87F9F8
7E1FFFFFF0
3F0FFEFFE0
3F07FC7FC0
1F81F81F00
1FC0000000
0FE0000000
07F8000000
03FE003800
01FFFFF800
00FFFFF800
003FFFF800
000FFFF800
0001FFE000
ENDCHAR
STARTCHAR 0041
ENCODING 65
SWIDTH 700 0
DWIDTH 28 0
BBX 27 30 1 0
BITMAP
003F0000
003F8000
007F8000
007F8000
007FC000
00FFC000
00FFE000
00FFE000
01FBE000
01F3F000
03F3F000
03F1F000
03E1F800
07E1F800
07E0F800
07C0FC00
0FC0FC00
0FC07E00
0F807E00
1FFFFE00
1FFFFF00
3FFFFF00
3FFFFF00
3FFFFF80
7E001F80
7E001F80
7E000FC0
FC000FC0
FC0007C0
F80007E0
ENDCHAR
STARTCHAR 0042
ENCODING 66
SWIDTH 675 0
DWIDTH 27 0
BBX 22 30 3 0
BITMAP
FFFE00
FFFF80
FFFFE0
FFFFE0
FFFFF0
F807F0
F803F0
F801F0
F801F0
F801F0
F803F0
F807E0
FFFFC0
FFFF80
FFFE00
FFFFC0
FFFFF0
F803F8
F801F8
F800FC
F800FC
F800FC
F800FC
F801FC
F803FC
FFFFF8
FFFFF0
FFFFE0
FFFFC0
FFFF00
ENDCHAR
STARTCHAR 0043
ENCODING 67
SWIDTH 725 0
DWIDTH 29 0
BBX 24 30 2 1
BITMAP
01FFC0
03FFF0
0FFFF8
0FFFFC
1FFFFE
3F80FE
3E007F
7E003F
7C003F
7C003F
FC0000
FC0000
FC0000
F80000
F80000
F80000
F80000
F80000
FC0000
FC0000
7C003F
7C003F
7E007F
3E007F
3F80FE
1FFFFE
1FFFFC
0FFFF8
07FFE0
01FFC0
ENDCHAR
STARTCHAR 0044
ENCODING 68
SWIDTH 725 0
DWIDTH 29 0
BBX 24 30 3 0
BITMAP
FFF800
FFFF00
FFFFC0
FFFFE0
FFFFF0
F80FF8
F801FC
F800FC
F8007E
F8007E
F8003E
F8003F
F8003F
F8003F
F8001F
F8001F
F8003F
F8003F
F8003F
F8003F
F8007E
F8007E
F800FC
F801FC
F80FF8
FFFFF0
FFFFE0
FFFFC0
FFFF00
FFF800
ENDCHAR
STARTCHAR 0045
ENCODING 69
SWIDTH 625 0
DWIDTH 25 0
BBX 20 30 3 0
BITMAP
FFFFE0
FFFFE0
FFFFE0
FFFFE0
FFFFE0
F80000
F80000
F80000
F80000
F80000
F80000
F80000
F80000
FFFFE0
FFFFE0
FFFFE0
FFFFE0
F80000
F80000
F80000
F80000
F80000
F80000
F80000
F80000
FFFFF0
FFFFF0
FFFFF0
FFFFF0
FFFFF0
ENDCHAR
STARTCHAR 0046
ENCODING 70
SWIDTH 600 0
DWIDTH 24 0
BBX 19 30 3 0
BITMAP
FFFFE0
FFFFE0
FFFFE0
FFFFE0
FFFFE0
F80000
F80000
F80000
F80000
F80000
F80000
F80000
FFFFC0
FFFFC0
FFFFC0
FFFFC0
FFFFC0
F80000
F80000
F80000
F80000
F80000
F80000
F80000
F80000
F80000
F80000
F80000
F80000
F80000
ENDCHAR
STARTCHAR 0047
ENCODING 71
SWIDTH 750 0
DWIDTH 30 0
BBX 26 30 2 1
BITMAP
007FF000
01FFFC00
03FFFE00
0FFFFF00
0FFFFF80
1FC03F80
3F800FC0
3F000FC0
7E000FC0
7E0007C0
7C000000
FC000000
FC000000
FC000000
F801FFC0
F801FFC0
F801FFC0
FC01FFC0
FC01FFC0
FC0007C0
7C0007C0
7E0007C0
7F0007C0
3F8007C0
3FE007C0
1FFFFFC0
0FFFFFC0
07FFFFC0
01FFFFC0
007FFE00
ENDCHAR
STARTCHAR 0048
ENCODING 72
SWIDTH 725 0
DWIDTH 29 0
BBX 23 30 3 0
BITMAP
F8003E
F8003E
F8003E
F8003E
F8003E
F8003E
F8003E
F8003E
F8003E
F8003E
F8003E
F8003E
FFFFFE
FFFFFE
FFFFFE
FFFFFE
FFFFFE
F8003E
F8003E
F8003E
F8003E
F8003E
F8003E
F8003E
F8003E
F8003E
F8003E
F8003E
F8003E
F8003E
ENDCHAR
STARTCHAR 0049
ENCODING 73
SWIDTH 275 0
DWIDTH 11 0
BBX 5 30 3 0
BITMAP
F8
F8
F8
F8
F8
F8
F8
F8
F8
F8
F8
F8
F8
F8
F8
F8
F8
F8
F8
F8
F8
F8
F8
F8
F8
F8
F8
F8
F8
F8
ENDCHAR
STARTCHAR 004A
ENCODING 74
SWIDTH 625 0
DWIDTH 25 0
BBX 20 30 2 0
BITMAP
0001F0
0001F0
0001F0
0001F0
0001F0
0001F0
0001F0
0001F0
0001F0
0001F0
0001F0
0001F0
0001F0
0001F0
0001F0
0001F0
0001F0
0001F0
0001F0
0001F0
F801F0
F803F0
FC03F0
FC03F0
FE07E0
7FFFE0
7FFFC0
3FFF80
1FFF00
0FFE00
ENDCHAR
STARTCHAR 004B
ENCODING 75
SWIDTH 675 0
DWIDTH 27 0
BBX 23 30 3 0
BITMAP
F801F8
F803F8
F807F0
F80FE0
F80FC0
F81FC0
F83F80
F87F00
F87E00
F8FE00
F9FC00
FBF800
FBF000
FFF000
FFF000
FBF800
F9FC00
F9FE00
F8FE00
F87F00
F87F80
F83F80
F81FC0
F81FE0
F80FE0
F807F0
F807F8
F803F8
F801FC
F800FE
ENDCHAR
STARTCHAR 004C
ENCODING 76
SWIDTH 575 0
DWIDTH 23 0
BBX 19 30 3 0
BITMAP
F80000
F80000
F80000
F80000
F80000
F80000
F80000
F80000
F80000
F80000
F80000
F80000
F80000
F80000
F80000
F80000
F80000
F80000
F80000
F80000
F80000
F80000
F80000
F80000
F80000
FFFFE0
FFFFE0
FFFFE0
FFFFE0
FFFFE0
ENDCHAR
STARTCHAR 004D
ENCODING 77
SWIDTH 925 0
DWIDTH 37 0
BBX 31 30 3 0
BITMAP
FFC003FE
FFC003FE
FFC007FE
FFC007FE
FFE007FE
FBE00FFE
FBE00FFE
FBF00FBE
FBF00FBE
F9F01FBE
F9F01F3E
F9F81F3E
F8F83F3E
F8F83F3E
F8FC3E3E
F87C7E3E
F87C7E3E
F87E7C3E
F87E7C3E
F83EFC3E
F83EF83E
F83FF83E
F81FF83E
F81FF83E
F81FF03E
F81FF03E
F80FF03E
F80FE03E
F80FE03E
F807E03E
ENDCHAR
STARTCHAR 004E
ENCODING 78
SWIDTH 775 0
DWIDTH 31 0
BBX 25 30 3 0
BITMAP
FF800F80
FF800F80
FF800F80
FFC00F80
FFC00F80
FFE00F80
FBE00F80
FBF00F80
F9F00F80
F9F80F80
F8F80F80
F8FC0F80
F8FC0F80
F87E0F80
F87E0F80
F83F0F80
F83F0F80
F81F8F80
F81F8F80
F80F8F80
F80FCF80
F807CF80
F807EF80
F803EF80
F803FF80
F801FF80
F801FF80
F800FF80
F800FF80
F8007F80
ENDCHAR
STARTCHAR 004F
ENCODING 79
SWIDTH 775 0
DWIDTH 31 0
BBX 27 30 2 1
BITMAP
00FFE000
03FFF800
07FFFC00
0FFFFE00
1FFFFF00
3FC07F80
3F001F80
7F001FC0
7E000FC0
7E000FC0
FC000FE0
FC0007E0
FC0007E0
FC0007E0
FC0007E0
FC0007E0
FC0007E0
FC0007E0
FC0007E0
FC000FE0
7E000FC0
7E000FC0
7F001FC0
3F001F80
3FC07F80
1FFFFF00
0FFFFE00
07FFFC00
03FFF800
00FFE000
ENDCHAR
STARTCHAR 0050
ENCODING 80
SWIDTH 650 0
DWIDTH 26 0
BBX 21 30 3 0
BITMAP
FFFC00
FFFF80
FFFFC0
FFFFE0
FFFFF0
F807F0
F803F8
F801F8
F801F8
F800F8
F801F8
F801F8
F801F8
F807F0
FFFFF0
FFFFE0
FFFFC0
FFFF80
FFFC00
F80000
F80000
F80000
F80000
F80000
F80000
F80000
F80000
F80000
F80000
F80000
ENDCHAR
STARTCHAR 0051
ENCODING 81
SWIDTH 825 0
DWIDTH 33 0
BBX 30 30 2 1
BITMAP
00FFE000
03FFF800
07FFFC00
0FFFFE00
1FFFFF00
3FC07F80
3F001F80
7F001FC0
7E000FC0
7E000FC0
FC000FE0
FC0007E0
FC0007E0
FC0007E0
FC0007E0
FC0007E0
FC0007E0
FC0007E0
FC0007E0
FC000FC0
7E000FC0
7E000FC0
7F001F80
3F001F80
3FC07F00
1FFFFEFC
0FFFFFFC
07FFFFFC
03FFFFFC
00FFFFFC
ENDCHAR
STARTCHAR 0052
ENCODING 82
SWIDTH 675 0
DWIDTH 27 0
BBX 23 30 3 0
BITMAP
FFFF00
FFFFE0
FFFFF0
FFFFF8
FFFFF8
F803FC
F801FC
F800FC
F8007C
F8007C
F800FC
F801F8
F807F0
FFFFE0
FFFFC0
FFFF80
FFFFE0
FFFFF0
F803F8
F801F8
F801F8
F800F8
F800F8
F800F8
F800FC
F800FC
F800FC
F800FC
F8007C
F8007E
ENDCHAR
STARTCHAR 0053
ENCODING 83
SWIDTH 675 0
DWIDTH 27 0
BBX 23 30 2 1
BITMAP
01FF80
07FFE0
0FFFF0
1FFFF0
3FFFF8
3F01F8
7E00FC
7E00FC
7C007C
7E0000
7E0000
3F8000
3FF000
1FFE00
0FFFC0
03FFF0
007FF8
0007FC
0001FC
00007E
F8007E
F8003E
FC007E
FC007E
7E00FC
7FFFFC
3FFFF8
1FFFF0
0FFFE0
03FF80
ENDCHAR
STARTCHAR 0054
ENCODING 84
SWIDTH 625 0
DWIDTH 25 0
BBX 23 30 1 0
BITMAP
FFFFFE
FFFFFE
FFFFFE
FFFFFE
FFFFFE
007C00
007C00
007C00
007C00
007C00
007C00
007C00
007C00
007C00
007C00
007C00
007C00
007C00
007C00
007C00
007C00
007C00
007C00
007C00
007C00
007C00
007C00
007C00
007C00
007C00
ENDCHAR
STARTCHAR 0055
ENCODING 85
SWIDTH 750 0
DWIDTH 30 0
BBX 24 30 3 0
BITMAP
F8001F
F8001F
F8001F
F8001F
F8001F
F8001F
F8001F
F8001F
F8001F
F8001F
F8001F
F8001F
F8001F
F8001F
F8001F
F8001F
F8001F
F8001F
F8001F
FC001F
FC001F
FC003F
7C003F
7E007E
7F00FE
3FFFFC
1FFFFC
1FFFF8
07FFE0
01FFC0
ENDCHAR
STARTCHAR 0056
ENCODING 86
SWIDTH 750 0
DWIDTH 30 0
BBX 28 30 1 0
BITMAP
FC0003F0
FC0007F0
FE0007E0
7E0007E0
7E000FC0
7F000FC0
3F001FC0
3F001F80
3F801F80
1F803F80
1F803F00
1FC03F00
0FC07F00
0FC07E00
07E07E00
07E0FC00
07E0FC00
03F0FC00
03F1F800
03F9F800
01F9F800
01FBF000
01FFF000
00FFF000
00FFE000
00FFE000
007FC000
007FC000
007FC000
003F8000
ENDCHAR
STARTCHAR 0057
ENCODING 87
SWIDTH 1000 0
DWIDTH 40 0
BBX 38 30 1 0
BITMAP
FC00FC00FC
FC01FE00FC
FC01FE00FC
FC01FE01FC
FE01FE01FC
7E03FF01F8
7E03FF01F8
7E03FF01F8
7E03FF01F8
3F07FF83F0
3F07CF83F0
3F07CF83F0
3F07CF83F0
1F0FCFC3E0
1F8F87C7E0
1F8F87C7E0
1F8F87C7E0
0F9F87E7C0
0F9F03E7C0
0FDF03EFC0
0FDF03EFC0
07FF03FF80
07FE01FF80
07FE01FF80
07FE01FF80
03FE01FF00
03FC00FF00
03FC00FF00
03FC00FF00
03FC00FF00
ENDCHAR
STARTCHAR 0058
ENCODING 88
SWIDTH 700 0
DWIDTH 28 0
BBX 26 30 1 0
BITMAP
7E001F80
7F003F80
3F803F00
3F807E00
1FC07E00
0FC0FC00
0FE1F800
07F1F800
03F3F000
03FBE000
01FFE000
00FFC000
00FF8000
007F8000
007F0000
007F8000
00FF8000
01FFC000
01FFE000
03F7E000
03E3F000
07E3F800
0FC1F800
0F81FC00
1F80FE00
3F007E00
3F007F00
7E003F80
FC001F80
FC001FC0
ENDCHAR
STARTCHAR 0059
ENCODING 89
SWIDTH 625 0
DWIDTH 25 0
BBX 24 30 1 0
BITMAP
FC007F
FE007E
7E00FE
7F00FC
3F01FC
3F01F8
1F83F8
1F83F0
0FC3F0
0FC7E0
07E7E0
07EFC0
03FFC0
03FF80
01FF80
01FF00
00FF00
00FE00
007E00
007C00
007C00
007C00
007C00
007C00
007C00
007C00
007C00
007C00
007C00
007C00
ENDCHAR
STARTCHAR 005A
ENCODING 90
SWIDTH 650 0
DWIDTH 26 0
BBX 22 30 2 0
BITMAP
7FFFFC
7FFFFC
7FFFFC
7FFFFC
7FFFFC
0001FC
0003F8
0007F0
000FF0
001FE0
001FC0
003F80
007F80
00FF00
00FE00
01FC00
03FC00
07F800
07F000
0FE000
1FE000
3FC000
3F8000
7F0000
FF0000
FFFFFC
FFFFFC
FFFFFC
FFFFFC
FFFFFC
ENDCHAR
STARTCHAR 005B
ENCODING 91
SWIDTH 375 0
DWIDTH 15 0
BBX 9 38 3 -8
BITMAP
FF80
FF80
FF80
FF80
F800
F800
F800
F800
F800
F800
F800
F800
F800
F800
F800
F800
F800
F800
F800
F800
F800
F800
F800
F800
F800
F800
F800
F800
F800
F800
F800
F800
F800
F800
FF80
FF80
FF80
FF80
ENDCHAR
STARTCHAR 005C
ENCODING 92
SWIDTH 425 0
DWIDTH 17 0
BBX 13 32 2 -2
BITMAP
F000
F000
7800
7800
7800
7800
3C00
3C00
3C00
1E00
1E00
1E00
0E00
0F00
0F00
0F00
0780
0780
0780
03C0
03C0
03C0
03C0
01E0
01E0
01E0
00F0
00F0
00F0
0070
0078
0078
ENDCHAR
STARTCHAR 005D
ENCODING 93
SWIDTH 375 0
DWIDTH 15 0
BBX 9 38 3 -8
BITMAP
FF80
FF80
FF80
FF80
0F80
0F80
0F80
0F80
0F80
0F80
0F80
0F80
0F80
0F80
0F80
0F80
0F80
0F80
0F80
0F80
0F80
0F80
0F80
0F80
0F80
0F80
0F80
0F80
0F80
0F80
0F80
0F80
0F80
0F80
FF80
FF80
FF80
FF80
ENDCHAR
STARTCHAR 005E
ENCODING 94
SWIDTH 1000 0
DWIDTH 40 0
BBX 20 25 10 0
BITMAP
006000
00F000
00F000
00F000
01F800
019800
039C00
030C00
030C00
070E00
060600
060600
0E0700
0C0300
1C0380
1C0180
180180
3801C0
3000C0
3000C0
7000E0
600060
E00070
E00070
C00030
ENDCHAR
STARTCHAR 005F
ENCODING 95
SWIDTH 500 0
DWIDTH 20 0
BBX 20 4 0 -6
BITMAP
FFFFF0
FFFFF0
FFFFF0
FFFFF0
ENDCHAR
STARTCHAR 0060
ENCODING 96
SWIDTH 250 0
DWIDTH 10 0
BBX 9 8 -1 25
BITMAP
F800
7C00
3C00
3E00
1E00
0F00
0700
0380
ENDCHAR
STARTCHAR 0061
ENCODING 97
SWIDTH 550 0
DWIDTH 22 0
BBX 19 20 2 1
BITMAP
0FFE00
1FFF00
3FFF80
7E0F80
7C0FC0
0007C0
007FC0
0FFFC0
3FFFC0
7FFFC0
7F07C0
FC07C0
FC07C0
F80FC0
F80FC0
FC0FC0
FE1FC0
7FFFC0
3FF7C0
1FE3E0
ENDCHAR
STARTCHAR 0062
ENCODING 98
SWIDTH 625 0
DWIDTH 25 0
BBX 20 30 3 0
BITMAP
F80000
F80000
F80000
F80000
F80000
F80000
F80000
F80000
F80000
F80000
F9FE00
FBFF80
FFFFC0
FF0FC0
FE07E0
FC03E0
FC03F0
FC03F0
FC03F0
F801F0
F801F0
F803F0
FC03F0
FC03F0
FC03E0
FE07E0
FF0FC0
FBFFC0
FBFF80
F8FE00
ENDCHAR
STARTCHAR 0063
ENCODING 99
SWIDTH 525 0
DWIDTH 21 0
BBX 17 20 2 1
BITMAP
0FFC00
1FFE00
3FFF00
7E3F00
7C1F80
7C1F80
FC0F80
F80000
F80000
F80000
F80000
F80000
F80000
FC0F80
FC1F80
7C1F80
7E3F00
3FFF00
1FFE00
0FFC00
ENDCHAR
STARTCHAR 0064
ENCODING 100
SWIDTH 625 0
DWIDTH 25 0
BBX 20 30 2 0
BITMAP
0001F0
0001F0
0001F0
0001F0
0001F0
0001F0
0001F0
0001F0
0001F0
0001F0
07F9F0
1FFDF0
3FFFF0
3F0FF0
7E07F0
7C03F0
FC03F0
FC03F0
FC03F0
F801F0
F801F0
F803F0
FC03F0
FC03F0
7C03F0
7E07F0
3F0FF0
3FFDF0
1FF9F0
07F1F0
ENDCHAR
STARTCHAR 0065
ENCODING 101
SWIDTH 550 0
DWIDTH 22 0
BBX 19 20 2 1
BITMAP
07FC00
1FFF00
3FFF00
3E1F80
7C0FC0
7C07C0
FC07C0
FFFFC0
FFFFC0
FFFFE0
FFFFE0
F80000
F80000
FC0000
7C07C0
7C0FC0
7E1F80
3FFF80
1FFF00
07FC00
ENDCHAR
STARTCHAR 0066
ENCODING 102
SWIDTH 375 0
DWIDTH 15 0
BBX 14 30 1 1
BITMAP
03FC
07FC
0FFC
0FC0
0F80
0F80
0F80
0F80
0F80
0F80
FFF8
FFF8
FFF8
FFF8
0F80
0F80
0F80
0F80
0F80
0F80
0F80
0F80
0F80
0F80
0F80
0F80
0F80
0F80
0F80
0F80
ENDCHAR
STARTCHAR 0067
ENCODING 103
SWIDTH 625 0
DWIDTH 25 0
BBX 20 28 2 -7
BITMAP
07F9F0
1FFDF0
3FFFF0
3F0FF0
7E07F0
7C03F0
FC03F0
FC03F0
FC03F0
F801F0
F801F0
F803F0
FC03F0
FC03F0
7C07F0
7E07F0
3FFFF0
3FFDF0
0FF9F0
03E1F0
0003F0
0003F0
7C03F0
7E07E0
3FFFE0
3FFFC0
1FFF80
03FC00
ENDCHAR
STARTCHAR 0068
ENCODING 104
SWIDTH 600 0
DWIDTH 24 0
BBX 18 30 3 0
BITMAP
F80000
F80000
F80000
F80000
F80000
F80000
F80000
F80000
F80000
F80000
F9FF00
FBFF80
FFFFC0
FF1FC0
FE0FC0
FC07C0
FC07C0
FC07C0
F807C0
F807C0
F807C0
F807C0
F807C0
F807C0
F807C0
F807C0
F807C0
F807C0
F807C0
F807C0
ENDCHAR
STARTCHAR 0069
ENCODING 105
SWIDTH 250 0
DWIDTH 10 0
BBX 6 30 2 0
BITMAP
FC
FC
FC
FC
FC
00
00
00
00
00
7C
7C
7C
7C
7C
7C
7C
7C
7C
7C
7C
7C
7C
7C
7C
7C
7C
7C
7C
7C
ENDCHAR
STARTCHAR 006A
ENCODING 106
SWIDTH 325 0
DWIDTH 13 0
BBX 7 39 4 -9
BITMAP
7E
7E
7E
7E
7E
00
00
00
00
00
3E
3E
3E
3E
3E
3E
3E
3E
3E
3E
3E
3E
3E
3E
3E
3E
3E
3E
3E
3E
3E
3E
3E
7E
FE
FE
FE
FC
F8
ENDCHAR
STARTCHAR 006B
ENCODING 107
SWIDTH 550 0
DWIDTH 22 0
BBX 18 30 3 0
BITMAP
F80000
F80000
F80000
F80000
F80000
F80000
F80000
F80000
F80000
F80000
F81FC0
F81F80
F83F00
F87E00
F8FC00
F9FC00
F9F800
FBF000
FFE000
FFF000
FBF000
F9F800
F9FC00
F8FC00
F87E00
F87F00
F83F00
F81F80
F81FC0
F80FC0
ENDCHAR
STARTCHAR 006C
ENCODING 108
SWIDTH 275 0
DWIDTH 11 0
BBX 5 30 3 0
BITMAP
F8
F8
F8
F8
F8
F8
F8
F8
F8
F8
F8
F8
F8
F8
F8
F8
F8
F8
F8
F8
F8
F8
F8
F8
F8
F8
F8
F8
F8
F8
ENDCHAR
STARTCHAR 006D
ENCODING 109
SWIDTH 925 0
DWIDTH 37 0
BBX 31 20 3 1
BITMAP
F8FF0FF0
F9FF9FFC
FBFFBFFC
FF1FF8FE
FE0FF07E
FC07E03E
FC07E03E
F807C03E
F807C03E
F807C03E
F807C03E
F807C03E
F807C03E
F807C03E
F807C03E
F807C03E
F807C03E
F807C03E
F807C03E
F807C03E
ENDCHAR
STARTCHAR 006E
ENCODING 110
SWIDTH 600 0
DWIDTH 24 0
BBX 18 20 3 1
BITMAP
F9FF00
FBFF80
FBFFC0
FF1FC0
FE0FC0
FC07C0
FC07C0
FC07C0
F807C0
F807C0
F807C0
F807C0
F807C0
F807C0
F807C0
F807C0
F807C0
F807C0
F807C0
F807C0
ENDCHAR
STARTCHAR 006F
ENCODING 111
SWIDTH 600 0
DWIDTH 24 0
BBX 20 20 2 1
BITMAP
03FE00
0FFF00
1FFFC0
3F0FC0
7E03E0
7C03F0
FC01F0
FC01F0
FC01F0
F801F0
F801F0
F801F0
FC01F0
FC01F0
7C03F0
7E03E0
3F0FC0
1FFFC0
0FFF00
03FE00
ENDCHAR
STARTCHAR 0070
ENCODING 112
SWIDTH 625 0
DWIDTH 25 0
BBX 20 28 3 -7
BITMAP
F8FE00
F9FF80
FBFFC0
FF0FC0
FE07E0
FC03E0
FC03F0
FC03F0
FC03F0
F801F0
F801F0
FC03F0
FC03F0
FC03F0
FC03E0
FE07E0
FF0FC0
FFFFC0
FBFF80
F9FE00
F80000
F80000
F80000
F80000
F80000
F80000
F80000
F80000
ENDCHAR
STARTCHAR 0071
ENCODING 113
SWIDTH 625 0
DWIDTH 25 0
BBX 20 28 2 -7
BITMAP
07F1F0
1FFDF0
3FFDF0
3F0FF0
7E07F0
7C03F0
FC03F0
FC03F0
F803F0
F801F0
F801F0
FC03F0
FC03F0
FC03F0
7C03F0
7E07F0
3F0FF0
3FFFF0
1FFDF0
07F9F0
0001F0
0001F0
0001F0
0001F0
0001F0
0001F0
0001F0
0001F0
ENDCHAR
STARTCHAR 0072
ENCODING 114
SWIDTH 400 0
DWIDTH 16 0
BBX 12 20 3 1
BITMAP
F8F0
F9F0
FBF0
FFF0
FFF0
FF00
FE00
FC00
FC00
F800
F800
F800
F800
F800
F800
F800
F800
F800
F800
F800
ENDCHAR
STARTCHAR 0073
ENCODING 115
SWIDTH 525 0
DWIDTH 21 0
BBX 17 20 2 1
BITMAP
0FFC00
3FFE00
7FFF00
7E1F80
7C1F80
7C0F80
7E0000
7F8000
3FF800
3FFE00
07FF00
00FF80
001F80
000F80
F80F80
FC0F80
7E1F80
7FFF00
3FFE00
1FFC00
ENDCHAR
STARTCHAR 0074
ENCODING 116
SWIDTH 425 0
DWIDTH 17 0
BBX 15 26 1 0
BITMAP
0080
0180
0780
0F80
0F80
0F80
FFFC
FFFC
FFFC
FFFC
0F80
0F80
0F80
0F80
0F80
0F80
0F80
0F80
0F80
0F80
0F80
0FC0
0FE0
07FE
07FE
01FE
ENDCHAR
STARTCHAR 0075
ENCODING 117
SWIDTH 600 0
DWIDTH 24 0
BBX 18 20 3 0
BITMAP
F807C0
F807C0
F807C0
F807C0
F807C0
F807C0
F807C0
F807C0
F807C0
F807C0
F807C0
F807C0
F807C0
FC07C0
FC0FC0
FC0FC0
FE1FC0
7FFFC0
3FF7C0
1FE7C0
ENDCHAR
STARTCHAR 0076
ENCODING 118
SWIDTH 550 0
DWIDTH 22 0
BBX 20 20 1 0
BITMAP
F803F0
FC03F0
FC03E0
7C07E0
7E07E0
7E07C0
3E0FC0
3F0FC0
1F0F80
1F1F80
1F9F00
0F9F00
0FBF00
0FFE00
07FE00
07FE00
03FC00
03FC00
03F800
01F800
ENDCHAR
STARTCHAR 0077
ENCODING 119
SWIDTH 850 0
DWIDTH 34 0
BBX 33 20 1 0
BITMAP
F807E01F80
F80FF01F00
FC0FF01F00
FC0FF03F00
7C0FF83E00
7E1FF83E00
7E1FF87E00
3E1F7C7E00
3E3E7C7C00
3F3E7C7C00
1F3E7EFC00
1F7C3EF800
1FFC3EF800
0FFC3FF800
0FFC1FF000
0FF81FF000
0FF81FF000
07F80FF000
07F00FE000
07F00FE000
ENDCHAR
STARTCHAR 0078
ENCODING 120
SWIDTH 550 0
DWIDTH 22 0
BBX 20 20 1 0
BITMAP
FE03E0
7E07E0
3F0FC0
1F8F80
1F9F80
0FDF00
07FE00
07FE00
03FC00
03FC00
03FC00
07FE00
0FFF00
0FBF00
1F9F80
3F1FC0
3E0FC0
7E07E0
FC07E0
FC03F0
ENDCHAR
STARTCHAR 0079
ENCODING 121
SWIDTH 550 0
DWIDTH 22 0
BBX 20 28 1 -8
BITMAP
FC03F0
FC03F0
FC03E0
7E07E0
7E07E0
3F07C0
3F0FC0
3F0FC0
1F8F80
1F9F80
0F9F80
0FDF00
0FFF00
07FF00
07FE00
03FE00
03FC00
03FC00
01FC00
01F800
01F800
01F800
01F000
03F000
03F000
07E000
07E000
07E000
ENDCHAR
STARTCHAR 007A
ENCODING 122
SWIDTH 525 0
DWIDTH 21 0
BBX 17 20 2 0
BITMAP
FFFF00
FFFF00
FFFF00
FFFF00
003F00
007E00
00FC00
01F800
03F000
07F000
0FE000
0FC000
1F8000
3F0000
7E0000
FC0000
FFFF80
FFFF80
FFFF80
FFFF80
ENDCHAR
STARTCHAR 007B
ENCODING 123
SWIDTH 500 0
DWIDTH 20 0
BBX 15 41 3 -10
BITMAP
0002
00FE
01FE
03FE
07F0
07E0
07C0
07C0
07C0
07C0
07C0
07C0
07C0
07C0
07C0
07C0
0FC0
0F80
3F80
FE00
FC00
FE00
FF00
3F80
0F80
0FC0
07C0
07C0
07C0
07C0
07C0
07C0
07C0
07C0
07C0
07E0
07E0
03FE
03FE
01FE
003E
ENDCHAR
STARTCHAR 007C
ENCODING 124
SWIDTH 325 0
DWIDTH 13 0
BBX 3 43 5 -11
BITMAP
E0
E0
E0
E0
E0
E0
E0
E0
E0
E0
E0
E0
E0
E0
E0
E0
E0
E0
E0
E0
E0
E0
E0
E0
E0
E0
E0
E0
E0
E0
E0
E0
E0
E0
E0
E0
E0
E0
E0
E0
E0
E0
E0
ENDCHAR
STARTCHAR 007D
ENCODING 125
SWIDTH 500 0
DWIDTH 20 0
BBX 15 40 3 -9
BITMAP
FC00
FF00
FF00
1F80
0F80
0F80
0F80
0F80
0F80
0F80
0F80
0F80
0F80
0FC0
0FC0
07E0
07E0
03F8
01FE
007E
00FE
03FC
07E0
07C0
07C0
0FC0
0F80
0F80
0F80
0F80
0F80
0F80
0F80
0F80
0F80
1F80
FF80
FF00
FE00
F800
ENDCHAR
STARTCHAR 007E
ENCODING 126
SWIDTH 525 0
DWIDTH 21 0
BBX 21 5 0 8
BITMAP
0FC078
3FFFF8
7FFFF0
7FFFE0
F01F80
ENDCHAR
STARTCHAR 00A0
ENCODING 160
SWIDTH 300 0
DWIDTH 12 0
BBX 0 0 0 0
BITMAP
ENDCHAR
STARTCHAR 00A1
ENCODING 161
SWIDTH 400 0
DWIDTH 16 0
BBX 5 28 5 -8
BITMAP
F8
F8
F8
F8
F8
00
00
F8
F8
F8
F8
F8
F8
F8
F8
F8
F8
F8
F8
F8
F8
F8
F8
F8
F8
F8
F8
F8
ENDCHAR
STARTCHAR 00A2
ENCODING 162
SWIDTH 600 0
DWIDTH 24 0
BBX 18 30 3 -6
BITMAP
000600
000E00
000C00
000C00
001C00
07FC00
1FFF00
3FFF80
3F3F80
7C3FC0
7C7FC0
FC67C0
F86000
F86000
F8C000
F8C000
F8C000
FDC000
FD8FC0
7D8FC0
7F8FC0
7F1F80
3FFF80
1FFF00
07FC00
060000
0E0000
0C0000
0C0000
1C0000
ENDCHAR
STARTCHAR 00A3
ENCODING 163
SWIDTH 575 0
DWIDTH 23 0
BBX 20 31 2 0
BITMAP
001000
03FF80
07FFC0
0FFFE0
0FC7F0
1F83F0
1F83F0
1F01F0
1F0000
1F0000
1F0000
1F0000
FFFC00
FFFC00
FFFC00
FFFC00
1F0000
1F0000
1F0000
1F0000
1F0000
1F0000
1F0000
1F0000
1F0000
1F0000
1F0000
FFFFF0
FFFFF0
FFFFF0
FFFFF0
ENDCHAR
STARTCHAR 00A4
ENCODING 164
SWIDTH 625 0
DWIDTH 25 0
BBX 21 21 2 8
BITMAP
C00018
E00038
71FC70
3FFFE0
1F07C0
1C01C0
1801C0
3800E0
300060
300060
300060
300060
3000E0
3800E0
1C01C0
1E03C0
1F8FC0
3FFFE0
71FC70
E00038
C00018
ENDCHAR
STARTCHAR 00A5
ENCODING 165
SWIDTH 600 0
DWIDTH 24 0
BBX 22 30 1 0
BITMAP
FC00FC
FC00FC
7C01F8
7E01F8
3E03F0
3F03F0
3F07E0
1F87E0
FF87FC
FF8FFC
FFCFFC
07DF80
07FF00
03FF00
03FF00
01FE00
FFFFFC
FFFFFC
FFFFFC
00F800
00F800
00F800
00F800
00F800
00F800
00F800
00F800
00F800
00F800
00F800
ENDCHAR
STARTCHAR 00A6
ENCODING 166
SWIDTH 350 0
DWIDTH 14 0
BBX 2 38 6 -8
BITMAP
C0
C0
C0
C0
C0
C0
C0
C0
C0
C0
C0
C0
C0
C0
C0
C0
00
00
00
00
00
00
C0
C0
C0
C0
C0
C0
C0
C0
C0
C0
C0
C0
C0
C0
C0
C0
ENDCHAR
STARTCHAR 00A7
ENCODING 167
SWIDTH 475 0
DWIDTH 19 0
BBX 16 36 1 -5
BITMAP
0FFC
1FFE
3FFE
7E0E
7C02
7C00
7C00
7E00
7F00
3FC0
1FE0
0FF8
1FFC
3FFE
7E7F
7C3F
F81F
F81F
F81F
FC3E
FEFC
7FF8
3FF0
1FF8
07FC
01FE
007F
003F
003F
001F
003F
407E
7FFE
7FFC
7FF0
1FC0
ENDCHAR
STARTCHAR 00A8
ENCODING 168
SWIDTH 325 0
DWIDTH 13 0
BBX 13 5 0 26
BITMAP
F078
F078
F078
F078
F078
ENDCHAR
STARTCHAR 00A9
ENCODING 169
SWIDTH 850 0
DWIDTH 34 0
BBX 30 30 2 1
BITMAP
003FF000
00FFFC00
03F87F00
07C00F80
0F0003C0
1E0001E0
3C1FF0F0
383FF870
787FFC78
70F87C38
70F83E38
E1F03E1C
E1F03E1C
E1F0001C
E1F0001C
E1F0001C
E1F0001C
E1F03E1C
E1F03E1C
70F83E38
70F87C38
707FFC78
383FF870
3C1FE0F0
1E0001E0
0F0003C0
07800F80
03F03F00
01FFFC00
003FF000
ENDCHAR
STARTCHAR 00AA
ENCODING 170
SWIDTH 400 0
DWIDTH 16 0
BBX 14 20 1 10
BITMAP
0FC0
3FF0
78F0
7878
0078
0FF8
3FF8
7C78
F078
F078
F078
F0F8
FFF8
7FF8
3F38
0000
0000
0000
FFFC
FFFC
ENDCHAR
STARTCHAR 00AB
ENCODING 171
SWIDTH 600 0
DWIDTH 24 0
BBX 20 16 2 2
BITMAP
0FC1F0
0F83E0
1F87E0
1F07C0
3F0FC0
7E0FC0
7E1F80
FC1F80
FC1F80
7E1F80
7E0FC0
3F0FC0
1F07C0
1F87E0
0F83E0
0FC1F0
ENDCHAR
STARTCHAR 00AC
ENCODING 172
SWIDTH 625 0
DWIDTH 25 0
BBX 21 9 2 8
BITMAP
FFFFF8
FFFFF8
000018
000018
000018
000018
000018
000018
000018
ENDCHAR
STARTCHAR 00AE
ENCODING 174
SWIDTH 850 0
DWIDTH 34 0
BBX 30 30 2 1
BITMAP
003FF000
00FFFC00
03F87F00
07C00F80
0F0003C0
1E0001E0
3CFFC0F0
38FFF070
78FFF878
70F07C38
70F03C38
E0F03C1C
E0F03C1C
E0F0781C
E0FFF01C
E0FFE01C
E0FFF81C
E0F0781C
E0F0781C
70F03838
70F03C38
70F03C78
38F03C70
3CF03CF0
1E0001E0
0F0003C0
07800F80
03F03F00
01FFFC00
003FF000
ENDCHAR
STARTCHAR 00AF
ENCODING 175
SWIDTH 325 0
DWIDTH 13 0
BBX 13 4 0 26
BITMAP
FFF8
FFF8
FFF8
FFF8
ENDCHAR
STARTCHAR 00B0
ENCODING 176
SWIDTH 325 0
DWIDTH 13 0
BBX 9 9 2 21
BITMAP
3E00
7F00
E380
C180
C180
C180
E380
7F00
3E00
ENDCHAR
STARTCHAR 00B1
ENCODING 177
SWIDTH 1000 0
DWIDTH 40 0
BBX 24 24 8 0
BITMAP
003800
003800
003800
003800
003800
003800
003800
FFFFFF
FFFFFF
FFFFFF
003800
003800
003800
003800
003800
003800
003800
000000
000000
000000
000000
FFFFFF
FFFFFF
FFFFFF
ENDCHAR
STARTCHAR 00B2
ENCODING 178
SWIDTH 375 0
DWIDTH 15 0
BBX 13 16 1 15
BITMAP
3FE0
7FF0
F878
F078
0078
00F8
01F0
03E0
07C0
0F80
1F00
3C00
F000
FFF0
FFF0
FFF0
ENDCHAR
STARTCHAR 00B3
ENCODING 179
SWIDTH 350 0
DWIDTH 14 0
BBX 12 15 1 16
BITMAP
3FC0
7FE0
F0F0
F0F0
00F0
01E0
0FC0
0FC0
01E0
00F0
00F0
F0F0
F9F0
7FE0
3F80
ENDCHAR
STARTCHAR 00B4
ENCODING 180
SWIDTH 225 0
DWIDTH 9 0
BBX 8 8 2 25
BITMAP
1F
1F
3E
3C
78
70
F0
E0
ENDCHAR
STARTCHAR 00B6
ENCODING 182
SWIDTH 550 0
DWIDTH 22 0
BBX 18 36 2 -6
BITMAP
07FFC0
1FFFC0
3FC700
7FC700
FFC700
FFC700
FFC700
FFC700
FFC700
FFC700
FFC700
FFC700
7FC700
3FC700
0FC700
01C700
01C700
01C700
01C700
01C700
01C700
01C700
01C700
01C700
01C700
01C700
01C700
01C700
01C700
01C700
01C700
01C700
01C700
01C700
01C700
01C700
ENDCHAR
STARTCHAR 00B7
ENCODING 183
SWIDTH 300 0
DWIDTH 12 0
BBX 5 5 3 11
BITMAP
F8
F8
F8
F8
F8
ENDCHAR
STARTCHAR 00B8
ENCODING 184
SWIDTH 250 0
DWIDTH 10 0
BBX 9 10 2 -10
BITMAP
3000
3000
3C00
3F00
0780
0380
0380
8780
FF00
FC00
ENDCHAR
STARTCHAR 00B9
ENCODING 185
SWIDTH 275 0
DWIDTH 11 0
BBX 7 16 2 14
BITMAP
1E
3E
FE
FE
9E
1E
1E
1E
1E
1E
1E
1E
1E
1E
1E
1E
ENDCHAR
STARTCHAR 00BA
ENCODING 186
SWIDTH 400 0
DWIDTH 16 0
BBX 14 19 1 11
BITMAP
0FC0
1FE0
3CF0
7878
7038
F03C
F03C
F03C
F03C
F03C
7038
7878
3CF0
1FE0
0FC0
0000
0000
FFFC
FFFC
ENDCHAR
STARTCHAR 00BB
ENCODING 187
SWIDTH 600 0
DWIDTH 24 0
BBX 20 16 2 2
BITMAP
FC1F00
7C1F00
7E0F80
3E0FC0
3F0FC0
1F07E0
1F87E0
1F83F0
1F83F0
1F87E0
1F07E0
3F0FC0
3E0FC0
7E0F80
7C1F00
FC1F00
ENDCHAR
STARTCHAR 00BC
ENCODING 188
SWIDTH 800 0
DWIDTH 32 0
BBX 28 31 2 -1
BITMAP
1E000F00
3E001E00
FE001E00
FE003C00
9E007C00
1E007800
1E00F800
1E00F000
1E01F000
1E01E000
1E03C000
1E03C000
1E078000
1E0F8000
1E0F0000
1E1F03E0
001E07E0
003C0FE0
003C0FE0
00781FE0
00783DE0
00F079E0
00F079E0
01E0F1E0
03C1E1E0
03C1FFF0
0781FFF0
078001E0
0F0001E0
0F0001E0
1E0001E0
ENDCHAR
STARTCHAR 00BD
ENCODING 189
SWIDTH 775 0
DWIDTH 31 0
BBX 28 30 2 0
BITMAP
1E001E00
3E003C00
FE003800
DE007800
9E00F000
1E00F000
1E01E000
1E01E000
1E03C000
1E03C000
1E078000
1E078000
1E0F0000
1E1E0000
1E1E1F80
1E3C3FE0
003C7DE0
0078F0F0
0078F0F0
00F000F0
00F001F0
01E003E0
01C007C0
03C00F80
07801F00
07803E00
0F007C00
0F00F000
1E00FFF0
1E00FFF0
ENDCHAR
STARTCHAR 00BE
ENCODING 190
SWIDTH 775 0
DWIDTH 31 0
BBX 29 30 1 1
BITMAP
3FC003C0
7FE007C0
F0F00780
F0F00F00
00F00F00
01E01E00
0FC01E00
0FC03C00
01E07C00
00F07800
00F0F000
F0F0F000
F9F1E000
7FE1E000
3F83C1F0
0003C3F0
000787F0
000F07F0
000F0FF0
001E1EF0
001E3CF0
003C3CF0
003C78F0
0078F0F0
00F0FFF8
00F0FFF8
01E000F0
01E000F0
03C000F0
03C000F0
ENDCHAR
STARTCHAR 00BF
ENCODING 191
SWIDTH 575 0
DWIDTH 23 0
BBX 19 28 2 -8
BITMAP
00F800
00F800
00F800
00F800
00F800
000000
000000
000000
00F000
00F000
00F000
00F000
01E000
07E000
0F8000
1F0000
3E0000
7C0000
FC0000
FC0000
F80100
FC0380
FC07E0
7E0FC0
7FFFC0
3FFF80
0FFE00
03F800
ENDCHAR
STARTCHAR 00C0
ENCODING 192
SWIDTH 700 0
DWIDTH 28 0
BBX 27 41 1 0
BITMAP
01F00000
01F00000
00F80000
00780000
003C0000
001C0000
000E0000
000E0000
00000000
00000000
00000000
003F0000
003F8000
007F8000
007F8000
007FC000
00FFC000
00FFE000
00FFE000
01FBE000
01F3F000
03F3F000
03F1F000
03E1F800
07E1F800
07E0F800
07C0FC00
0FC0FC00
0FC07E00
0F807E00
1FFFFE00
1FFFFF00
3FFFFF00
3FFFFF00
3FFFFF80
7E001F80
7E001F80
7E000FC0
FC000FC0
FC0007C0
F80007E0
ENDCHAR
STARTCHAR 00C1
ENCODING 193
SWIDTH 700 0
DWIDTH 28 0
BBX 27 41 1 0
BITMAP
0003F000
0003E000
0003C000
00078000
00070000
000F0000
000E0000
001C0000
00000000
00000000
00000000
003F0000
003F8000
007F8000
007F8000
007FC000
00FFC000
00FFE000
00FFE000
01FBE000
01F3F000
03F3F000
03F1F000
03E1F800
07E1F800
07E0F800
07C0FC00
0FC0FC00
0FC07E00
0F807E00
1FFFFE00
1FFFFF00
3FFFFF00
3FFFFF00
3FFFFF80
7E001F80
7E001F80
7E000FC0
FC000FC0
FC0007C0
F80007E0
ENDCHAR
STARTCHAR 00C2
ENCODING 194
SWIDTH 700 0
DWIDTH 28 0
BBX 27 41 1 0
BITMAP
003F0000
003F8000
007F8000
007BC000
00F3C000
00E1E000
01C0E000
01C07000
00000000
00000000
00000000
003F0000
003F8000
007F8000
007F8000
007FC000
00FFC000
00FFE000
00FFE000
01FBE000
01F3F000
03F3F000
03F1F000
03E1F800
07E1F800
07E0F800
07C0FC00
0FC0FC00
0FC07E00
0F807E00
1FFFFE00
1FFFFF00
3FFFFF00
3FFFFF00
3FFFFF80
7E001F80
7E001F80
7E000FC0
FC000FC0
FC0007C0
F80007E0
ENDCHAR
STARTCHAR 00C3
ENCODING 195
SWIDTH 700 0
DWIDTH 28 0
BBX 27 39 1 0
BITMAP
00787000
00FFE000
01FFE000
01FFC000
01800000
00000000
00000000
00000000
00000000
003F0000
003F8000
007F8000
007F8000
007FC000
00FFC000
00FFE000
00FFE000
01FBE000
01F3F000
03F3F000
03F1F000
03E1F800
07E1F800
07E0F800
07C0FC00
0FC0FC00
0FC07E00
0F807E00
1FFFFE00
1FFFFF00
3FFFFF00
3FFFFF00
3FFFFF80
7E001F80
7E001F80
7E000FC0
FC000FC0
FC0007C0
F80007E0
ENDCHAR
STARTCHAR 00C4
ENCODING 196
SWIDTH 725 0
DWIDTH 29 0
BBX 27 40 1 0
BITMAP
01E0F000
01E0F000
01E0F000
01E0F000
01E0F000
00000000
00000000
00000000
00000000
00000000
003F8000
003F8000
007FC000
007FC000
007FC000
00FFE000
00FFE000
01FBF000
01FBF000
01FBF000
03F1F800
03F1F800
03E0F800
07E0FC00
07E0FC00
07C07C00
0FC07E00
0FC07E00
0F803E00
1FFFFF00
1FFFFF00
1FFFFF00
3FFFFF80
3FFFFF80
7E001F80
7E000FC0
7E000FC0
FC0007E0
FC0007E0
FC0007E0
ENDCHAR
STARTCHAR 00C5
ENCODING 197
SWIDTH 700 0
DWIDTH 28 0
BBX 27 43 0 0
BITMAP
001F0000
003F8000
0071C000
0060C000
0060C000
0060C000
0071C000
003F8000
001F0000
00000000
00000000
00000000
00000000
003F8000
003F8000
003F8000
007FC000
007FC000
007FC000
00FFE000
00FBE000
00FBF000
01FBF000
01F1F000
01F1F800
03F1F800
03E0F800
07E0FC00
07E0FC00
07C07C00
0FC07E00
0FC07E00
0FFFFE00
1FFFFF00
1FFFFF00
1FFFFF80
3FFFFF80
3F001F80
3E000FC0
7E000FC0
7E000FC0
FC0007E0
FC0007E0
ENDCHAR
STARTCHAR 00C6
ENCODING 198
SWIDTH 1000 0
DWIDTH 40 0
BBX 38 30 0 0
BITMAP
0001FFFFF8
0001FFFFF8
0003FFFFF8
0003FFFFF8
0007FF0000
0007DF0000
000FDF0000
000F9F0000
001F9F0000
001F1F0000
003F1F0000
003E1F0000
007E1FFFF8
007C1FFFF8
00FC1FFFF8
00F81FFFF8
01F81FFFF8
01F01F0000
03FFFF0000
07FFFF0000
07FFFF0000
0FFFFF0000
0FFFFF0000
1F803F0000
1F803F0000
3F003FFFFC
3F003FFFFC
7E003FFFFC
7E003FFFFC
FC003FFFFC
ENDCHAR
STARTCHAR 00C7
ENCODING 199
SWIDTH 725 0
DWIDTH 29 0
BBX 24 40 2 -9
BITMAP
01FFC0
03FFF0
0FFFF8
0FFFFC
1FFFFE
3F80FE
3E007F
7E007F
7C003F
7C003F
FC0000
FC0000
FC0000
F80000
F80000
F80000
F80000
F80000
FC0000
FC0000
7C003F
7C007F
7E007F
3E00FF
3F00FE
1FFFFE
1FFFFC
0FFFF8
07FFF0
01FFC0
001800
001800
001F00
001F80
0003C0
0001C0
0001C0
00C3C0
00FF80
00FE00
ENDCHAR
STARTCHAR 00C8
ENCODING 200
SWIDTH 625 0
DWIDTH 25 0
BBX 20 41 3 0
BITMAP
0F8000
0F8000
07C000
03C000
01E000
00E000
00F000
007000
000000
000000
000000
FFFFE0
FFFFE0
FFFFE0
FFFFE0
FFFFE0
F80000
F80000
F80000
F80000
F80000
F80000
F80000
F80000
FFFFE0
FFFFE0
FFFFE0
FFFFE0
F80000
F80000
F80000
F80000
F80000
F80000
F80000
F80000
FFFFF0
FFFFF0
FFFFF0
FFFFF0
FFFFF0
ENDCHAR
STARTCHAR 00C9
ENCODING 201
SWIDTH 625 0
DWIDTH 25 0
BBX 20 41 3 0
BITMAP
003F00
003E00
007C00
007800
00F000
00E000
01E000
01C000
000000
000000
000000
FFFFE0
FFFFE0
FFFFE0
FFFFE0
FFFFE0
F80000
F80000
F80000
F80000
F80000
F80000
F80000
F80000
FFFFE0
FFFFE0
FFFFE0
FFFFE0
F80000
F80000
F80000
F80000
F80000
F80000
F80000
F80000
FFFFF0
FFFFF0
FFFFF0
FFFFF0
FFFFF0
ENDCHAR
STARTCHAR 00CA
ENCODING 202
SWIDTH 625 0
DWIDTH 25 0
BBX 20 41 3 0
BITMAP
03F800
03F800
07FC00
07BC00
071E00
0E0E00
0E0700
1C0700
000000
000000
000000
FFFFE0
FFFFE0
FFFFE0
FFFFE0
FFFFE0
F80000
F80000
F80000
F80000
F80000
F80000
F80000
F80000
FFFFE0
FFFFE0
FFFFE0
FFFFE0
F80000
F80000
F80000
F80000
F80000
F80000
F80000
F80000
FFFFF0
FFFFF0
FFFFF0
FFFFF0
FFFFF0
ENDCHAR
STARTCHAR 00CB
ENCODING 203
SWIDTH 625 0
DWIDTH 25 0
BBX 20 40 3 0
BITMAP
0F0F00
0F0F00
0F0F00
0F0F00
0F0F00
000000
000000
000000
000000
000000
FFFFE0
FFFFE0
FFFFE0
FFFFE0
FFFFE0
F80000
F80000
F80000
F80000
F80000
F80000
F80000
F80000
FFFFE0
FFFFE0
FFFFE0
FFFFE0
F80000
F80000
F80000
F80000
F80000
F80000
F80000
F80000
FFFFF0
FFFFF0
FFFFF0
FFFFF0
FFFFF0
ENDCHAR
STARTCHAR 00CC
ENCODING 204
SWIDTH 275 0
DWIDTH 11 0
BBX 9 41 -1 0
BITMAP
F800
7C00
3C00
1E00
0E00
0F00
0700
0300
0000
0000
0000
0F80
0F80
0F80
0F80
0F80
0F80
0F80
0F80
0F80
0F80
0F80
0F80
0F80
0F80
0F80
0F80
0F80
0F80
0F80
0F80
0F80
0F80
0F80
0F80
0F80
0F80
0F80
0F80
0F80
0F80
ENDCHAR
STARTCHAR 00CD
ENCODING 205
SWIDTH 250 0
DWIDTH 10 0
BBX 8 41 3 0
BITMAP
0F
1F
1E
3C
38
78
70
E0
00
00
00
F8
F8
F8
F8
F8
F8
F8
F8
F8
F8
F8
F8
F8
F8
F8
F8
F8
F8
F8
F8
F8
F8
F8
F8
F8
F8
F8
F8
F8
F8
ENDCHAR
STARTCHAR 00CE
ENCODING 206
SWIDTH 275 0
DWIDTH 11 0
BBX 12 41 0 0
BITMAP
1F80
3F80
3F80
7BC0
79C0
70E0
E0E0
C070
0000
0000
0000
1F00
1F00
1F00
1F00
1F00
1F00
1F00
1F00
1F00
1F00
1F00
1F00
1F00
1F00
1F00
1F00
1F00
1F00
1F00
1F00
1F00
1F00
1F00
1F00
1F00
1F00
1F00
1F00
1F00
1F00
ENDCHAR
STARTCHAR 00CF
ENCODING 207
SWIDTH 325 0
DWIDTH 13 0
BBX 13 40 0 0
BITMAP
F078
F078
F078
F078
F078
0000
0000
0000
0000
0000
0F80
0F80
0F80
0F80
0F80
0F80
0F80
0F80
0F80
0F80
0F80
0F80
0F80
0F80
0F80
0F80
0F80
0F80
0F80
0F80
0F80
0F80
0F80
0F80
0F80
0F80
0F80
0F80
0F80
0F80
ENDCHAR
STARTCHAR 00D0
ENCODING 208
SWIDTH 725 0
DWIDTH 29 0
BBX 26 30 0 0
BITMAP
1FFF0000
1FFFE000
1FFFF800
1FFFFC00
1FFFFE00
1F01FF00
1F007F00
1F001F80
1F001F80
1F000FC0
1F000FC0
1F0007C0
1F0007C0
FFFC07C0
FFFC07C0
FFFC07C0
FFFC07C0
1F0007C0
1F0007C0
1F000FC0
1F000FC0
1F001F80
1F001F80
1F007F00
1F01FF00
1FFFFE00
1FFFFC00
1FFFF800
1FFFE000
1FFF0000
ENDCHAR
STARTCHAR 00D1
ENCODING 209
SWIDTH 775 0
DWIDTH 31 0
BBX 25 39 3 0
BITMAP
00F86000
01FFE000
01FFC000
03FF8000
03000000
00000000
00000000
00000000
00000000
FF800F80
FF800F80
FF800F80
FFC00F80
FFC00F80
FFE00F80
FBE00F80
FBF00F80
F9F00F80
F9F80F80
F8F80F80
F8FC0F80
F8FC0F80
F87E0F80
F87E0F80
F83F0F80
F83F0F80
F81F8F80
F81F8F80
F80F8F80
F80FCF80
F807CF80
F807EF80
F803EF80
F803FF80
F801FF80
F801FF80
F800FF80
F800FF80
F8007F80
ENDCHAR
STARTCHAR 00D2
ENCODING 210
SWIDTH 775 0
DWIDTH 31 0
BBX 27 41 2 0
BITMAP
01F00000
01F00000
00F80000
00780000
003C0000
001C0000
001C0000
000E0000
00000000
00000000
00000000
00FFE000
03FFF800
07FFFC00
0FFFFE00
1FFFFF00
3FC07F80
3F001F80
7F001FC0
7E000FC0
7E000FC0
FC000FE0
FC0007E0
FC0007E0
FC0007E0
FC0007E0
FC0007E0
FC0007E0
FC0007E0
FC0007E0
FC000FE0
7E000FC0
7E000FC0
7F001FC0
3F001F80
3FC07F80
1FFFFF00
0FFFFE00
07FFFC00
03FFF800
00FFE000
ENDCHAR
STARTCHAR 00D3
ENCODING 211
SWIDTH 775 0
DWIDTH 31 0
BBX 27 41 2 0
BITMAP
0001F000
0001E000
0003E000
0003C000
00078000
00070000
000E0000
000E0000
00000000
00000000
00000000
00FFE000
03FFF800
07FFFC00
0FFFFE00
1FFFFF00
3FC07F80
3F001F80
7F001FC0
7E000FC0
7E000FC0
FC000FE0
FC0007E0
FC0007E0
FC0007E0
FC0007E0
FC0007E0
FC0007E0
FC0007E0
FC0007E0
FC000FE0
7E000FC0
7E000FC0
7F001FC0
3F001F80
3FC07F80
1FFFFF00
0FFFFE00
07FFFC00
03FFF800
00FFE000
ENDCHAR
STARTCHAR 00D4
ENCODING 212
SWIDTH 775 0
DWIDTH 31 0
BBX 27 41 2 0
BITMAP
003F0000
003F8000
003F8000
007BC000
0071C000
00F0E000
00E0E000
01C07000
00000000
00000000
00000000
00FFE000
03FFF800
07FFFC00
0FFFFE00
1FFFFF00
3FC07F80
3F001F80
7F001FC0
7E000FC0
7E000FC0
FC000FE0
FC0007E0
FC0007E0
FC0007E0
FC0007E0
FC0007E0
FC0007E0
FC0007E0
FC0007E0
FC000FE0
7E000FC0
7E000FC0
7F001FC0
3F001F80
3FC07F80
1FFFFF00
0FFFFE00
07FFFC00
03FFF800
00FFE000
ENDCHAR
STARTCHAR 00D5
ENCODING 213
SWIDTH 775 0
DWIDTH 31 0
BBX 27 40 2 0
BITMAP
00003000
007C7000
00FFE000
00FFE000
01FFC000
01800000
00000000
00000000
00000000
00000000
00FFE000
03FFF800
07FFFC00
0FFFFE00
1FFFFF00
3FC07F80
3F001F80
7F001FC0
7E000FC0
7E000FC0
FC000FE0
FC0007E0
FC0007E0
FC0007E0
FC0007E0
FC0007E0
FC0007E0
FC0007E0
FC0007E0
FC000FE0
7E000FC0
7E000FC0
7F001FC0
3F001F80
3FC07F80
1FFFFF00
0FFFFE00
07FFFC00
03FFF800
00FFE000
ENDCHAR
STARTCHAR 00D6
ENCODING 214
SWIDTH 775 0
DWIDTH 31 0
BBX 27 40 2 0
BITMAP
00F0F000
00F0F000
00F0F000
00F0F000
00F0F000
00000000
00000000
00000000
00000000
00000000
00FFE000
03FFF800
07FFFC00
0FFFFE00
1FFFFF00
3FC07F80
3F001F80
7F001FC0
7E000FC0
7E000FC0
FC000FE0
FC0007E0
FC0007E0
FC0007E0
FC0007E0
FC0007E0
FC0007E0
FC0007E0
FC0007E0
FC000FE0
7E000FC0
7E000FC0
7F001FC0
3F001F80
3FC07F80
1FFFFF00
0FFFFE00
07FFFC00
03FFF800
00FFE000
ENDCHAR
STARTCHAR 00D7
ENCODING 215
SWIDTH 1000 0
DWIDTH 40 0
BBX 22 22 9 1
BITMAP
600018
F0003C
700038
380070
1C00E0
0E01C0
070380
038700
01CE00
00FC00
007800
007800
00FC00
01CE00
038700
070380
0E01C0
1C00E0
380070
700038
600018
400008
ENDCHAR
STARTCHAR 00D8
ENCODING 216
SWIDTH 775 0
DWIDTH 31 0
BBX 29 34 1 -2
BITMAP
00000010
00000038
007FF078
01FFFCF0
03FFFFF0
07FFFFE0
0FFFFFC0
1FE03FC0
1F800FC0
3F801FE0
3F003FE0
3F007FE0
7E00FBF0
7E01F3F0
7E01E3F0
7E03C3F0
7E0783F0
7E0F03F0
7E1E03F0
7E3C03F0
7E7C03F0
7EF807F0
3FF007E0
3FE007E0
3FC00FE0
1F800FC0
1FE03FC0
1FFFFF80
3FFFFF00
7FFFFE00
F9FFFC00
F07FF000
E0000000
40000000
ENDCHAR
STARTCHAR 00D9
ENCODING 217
SWIDTH 750 0
DWIDTH 30 0
BBX 24 41 3 0
BITMAP
07C000
03E000
01E000
01F000
00F000
007800
003800
001C00
000000
000000
000000
F8001F
F8001F
F8001F
F8001F
F8001F
F8001F
F8001F
F8001F
F8001F
F8001F
F8001F
F8001F
F8001F
F8001F
F8001F
F8001F
F8001F
F8001F
F8001F
FC001F
FC001F
FC003F
7C003F
7E007E
7F00FE
3FFFFC
1FFFFC
1FFFF8
07FFE0
01FFC0
ENDCHAR
STARTCHAR 00DA
ENCODING 218
SWIDTH 750 0
DWIDTH 30 0
BBX 24 41 3 0
BITMAP
0003E0
0003E0
0007C0
000F80
000F00
001E00
001C00
003800
000000
000000
000000
F8001F
F8001F
F8001F
F8001F
F8001F
F8001F
F8001F
F8001F
F8001F
F8001F
F8001F
F8001F
F8001F
F8001F
F8001F
F8001F
F8001F
F8001F
F8001F
FC001F
FC001F
FC003F
7C003F
7E007E
7F00FE
3FFFFC
1FFFFC
1FFFF8
07FFE0
01FFC0
ENDCHAR
STARTCHAR 00DB
ENCODING 219
SWIDTH 750 0
DWIDTH 30 0
BBX 24 41 3 0
BITMAP
007E00
00FF00
00FF00
01F780
01E780
03C3C0
0381C0
0700E0
000000
000000
000000
F8001F
F8001F
F8001F
F8001F
F8001F
F8001F
F8001F
F8001F
F8001F
F8001F
F8001F
F8001F
F8001F
F8001F
F8001F
F8001F
F8001F
F8001F
F8001F
FC001F
FC001F
FC003F
7C003F
7E007E
7F00FE
3FFFFC
1FFFFC
1FFFF8
07FFE0
01FFC0
ENDCHAR
STARTCHAR 00DC
ENCODING 220
SWIDTH 750 0
DWIDTH 30 0
BBX 24 40 3 0
BITMAP
03C1E0
03C1E0
03C1E0
03C1E0
03C1E0
000000
000000
000000
000000
000000
FC001F
FC001F
FC001F
FC001F
FC001F
FC001F
FC001F
FC001F
FC001F
FC001F
FC001F
FC001F
FC001F
FC001F
FC001F
FC001F
FC001F
FC001F
FC001F
FC001F
FC001F
FE003F
7E003F
7F007E
7F80FE
3FFFFC
1FFFFC
1FFFF8
07FFE0
01FFC0
ENDCHAR
STARTCHAR 00DD
ENCODING 221
SWIDTH 625 0
DWIDTH 25 0
BBX 24 41 1 0
BITMAP
0007C0
000F80
000F00
000E00
001E00
001C00
003800
000000
000000
000000
000000
FC007F
FE007E
7E00FE
7F00FC
3F01FC
3F01F8
1F83F8
1F83F0
0FC3F0
0FC7E0
07E7E0
07EFC0
03FFC0
03FF80
01FF80
01FF00
00FF00
00FE00
007E00
007C00
007C00
007C00
007C00
007C00
007C00
007C00
007C00
007C00
007C00
007C00
ENDCHAR
STARTCHAR 00DE
ENCODING 222
SWIDTH 650 0
DWIDTH 26 0
BBX 21 30 2 0
BITMAP
F80000
F80000
F80000
F80000
F80000
FFFC00
FFFF80
FFFFC0
FFFFE0
FFFFF0
F807F0
F801F8
F801F8
F800F8
F800F8
F801F8
F801F8
F807F0
FFFFF0
FFFFE0
FFFFC0
FFFF80
FFFC00
F80000
F80000
F80000
F80000
F80000
F80000
F80000
ENDCHAR
STARTCHAR 00DF
ENCODING 223
SWIDTH 600 0
DWIDTH 24 0
BBX 21 30 2 1
BITMAP
0FFC00
3FFF00
7FFF80
7E1FC0
FC0FC0
FC07C0
F807C0
F80FC0
F80F80
F81F80
F83F00
F87E00
F8FC00
F8F800
F8F800
F8FC00
F8FE00
F87F80
F83FC0
F81FE0
F807F0
F803F0
F801F8
F801F8
FBE0F8
FBE1F8
FBF1F8
F9FFF0
F9FFE0
F8FFC0
ENDCHAR
STARTCHAR 00E0
ENCODING 224
SWIDTH 550 0
DWIDTH 22 0
BBX 19 32 2 0
BITMAP
1F0000
1F0000
0F8000
078000
03C000
01C000
01E000
00E000
000000
000000
000000
000000
0FFE00
1FFF00
3FFF80
7E0F80
7C0FC0
0007C0
007FC0
0FFFC0
3FFFC0
7FFFC0
7F07C0
FC07C0
FC07C0
F80FC0
F80FC0
FC0FC0
FE1FC0
7FFFC0
3FF7C0
1FE3E0
ENDCHAR
STARTCHAR 00E1
ENCODING 225
SWIDTH 550 0
DWIDTH 22 0
BBX 19 32 2 0
BITMAP
001F00
003E00
003C00
007800
007800
00F000
00E000
01C000
000000
000000
000000
000000
0FFE00
1FFF00
3FFF80
7E0F80
7C0FC0
0007C0
007FC0
0FFFC0
3FFFC0
7FFFC0
7F07C0
FC07C0
FC07C0
F80FC0
F80FC0
FC0FC0
FE1FC0
7FFFC0
3FF7C0
1FE3E0
ENDCHAR
STARTCHAR 00E2
ENCODING 226
SWIDTH 550 0
DWIDTH 22 0
BBX 19 32 2 0
BITMAP
03F000
03F800
07F800
07BC00
0F1C00
0E1E00
1C0E00
1C0700
000000
000000
000000
000000
0FFE00
1FFF00
3FFF80
7E0F80
7C0FC0
0007C0
007FC0
0FFFC0
3FFFC0
7FFFC0
7F07C0
FC07C0
FC07C0
F80FC0
F80FC0
FC0FC0
FE1FC0
7FFFC0
3FF7C0
1FE3E0
ENDCHAR
STARTCHAR 00E3
ENCODING 227
SWIDTH 550 0
DWIDTH 22 0
BBX 19 30 2 0
BITMAP
078700
0FFE00
0FFE00
1FFC00
181000
000000
000000
000000
000000
000000
0FFE00
1FFF00
3FFF80
7E0F80
7C0FC0
0007C0
007FC0
0FFFC0
3FFFC0
7FFFC0
7F07C0
FC07C0
FC07C0
F80FC0
F80FC0
FC0FC0
FE1FC0
7FFFC0
3FF7C0
1FE3E0
ENDCHAR
STARTCHAR 00E4
ENCODING 228
SWIDTH 575 0
DWIDTH 23 0
BBX 19 31 2 0
BITMAP
1E1E00
1E1E00
1E1E00
1E1E00
1E1E00
000000
000000
000000
000000
000000
000000
0FFE00
1FFF00
3FFF80
7E0F80
7C0FC0
0007C0
007FC0
0FFFC0
3FFFC0
7FFFC0
7F07C0
FC07C0
FC07C0
F80FC0
F80FC0
FC0FC0
FE1FC0
7FFFC0
3FF7C0
1FE7E0
ENDCHAR
STARTCHAR 00E5
ENCODING 229
SWIDTH 550 0
DWIDTH 22 0
BBX 19 34 2 0
BITMAP
01F000
03F800
071C00
060C00
060C00
060C00
071C00
03F800
01F000
000000
000000
000000
000000
000000
0FFE00
1FFF00
3FFF80
7E0F80
7C0FC0
0007C0
007FC0
0FFFC0
3FFFC0
7FFFC0
7F07C0
FC07C0
FC07C0
F80FC0
F80FC0
FC0FC0
FE1FC0
7FFFC0
3FF7C0
1FE7E0
ENDCHAR
STARTCHAR 00E6
ENCODING 230
SWIDTH 900 0
DWIDTH 36 0
BBX 32 20 2 1
BITMAP
0FFC1FE0
1FFE7FF8
3FFF7FFC
7E0FF07E
7C07E03E
0007E03E
0007C01F
07FFFFFF
1FFFFFFF
3FFFFFFF
7FFFFFFF
FC07C000
FC07E000
F807E000
F80FE03F
FC0FF03E
FE1EF87E
7FFC7FFC
3FF83FF8
1FE01FF0
ENDCHAR
STARTCHAR 00E7
ENCODING 231
SWIDTH 525 0
DWIDTH 21 0
BBX 17 30 2 -9
BITMAP
0FFC00
1FFE00
3FFF00
7E3F00
7C1F80
7C1F80
FC0F80
F80000
F80000
F80000
F80000
F80000
F80000
FC0F80
FC1F80
7C1F80
7E3F00
3FFF00
1FFE00
0FFC00
018000
018000
01E000
01F800
003C00
001C00
001C00
063C00
07F800
07E000
ENDCHAR
STARTCHAR 00E8
ENCODING 232
SWIDTH 550 0
DWIDTH 22 0
BBX 19 32 2 0
BITMAP
1F0000
1F0000
0F8000
078000
03C000
01C000
00E000
00E000
000000
000000
000000
000000
07FC00
1FFF00
3FFF00
3E1F80
7C0FC0
7C07C0
FC07C0
FFFFC0
FFFFC0
FFFFE0
FFFFE0
F80000
F80000
FC0000
7C07C0
7C0FC0
7E1F80
3FFF80
1FFF00
07FC00
ENDCHAR
STARTCHAR 00E9
ENCODING 233
SWIDTH 550 0
DWIDTH 22 0
BBX 19 32 2 0
BITMAP
001F00
003E00
003C00
007800
007800
00F000
00E000
01C000
000000
000000
000000
000000
07FC00
1FFF00
3FFF00
3E1F80
7C0FC0
7C07C0
FC07C0
FFFFC0
FFFFC0
FFFFE0
FFFFE0
F80000
F80000
FC0000
7C07C0
7C0FC0
7E1F80
3FFF80
1FFF00
07FC00
ENDCHAR
STARTCHAR 00EA
ENCODING 234
SWIDTH 550 0
DWIDTH 22 0
BBX 19 32 2 0
BITMAP
03F000
03F800
07F800
07BC00
0F1C00
0E1E00
1C0E00
1C0700
000000
000000
000000
000000
07FC00
1FFF00
3FFF00
3E1F80
7C0FC0
7C07C0
FC07C0
FFFFC0
FFFFC0
FFFFE0
FFFFE0
F80000
F80000
FC0000
7C07C0
7C0FC0
7E1F80
3FFF80
1FFF00
07FC00
ENDCHAR
STARTCHAR 00EB
ENCODING 235
SWIDTH 550 0
DWIDTH 22 0
BBX 19 31 2 0
BITMAP
1E1E00
1E1E00
1E1E00
1E1E00
1E1E00
000000
000000
000000
000000
000000
000000
07FC00
1FFF00
3FFF00
3E1F80
7C0FC0
7C0FC0
FC0FC0
FFFFC0
FFFFC0
FFFFE0
FFFFE0
F80000
F80000
FC0000
7C0FC0
7C0FC0
7E1F80
3FFF80
1FFF00
07FC00
ENDCHAR
STARTCHAR 00EC
ENCODING 236
SWIDTH 275 0
DWIDTH 11 0
BBX 8 32 0 0
BITMAP
F8
78
7C
3C
1E
0E
07
07
00
00
00
00
1F
1F
1F
1F
1F
1F
1F
1F
1F
1F
1F
1F
1F
1F
1F
1F
1F
1F
1F
1F
ENDCHAR
STARTCHAR 00ED
ENCODING 237
SWIDTH 250 0
DWIDTH 10 0
BBX 9 32 2 0
BITMAP
0F80
1F00
1E00
3E00
3C00
7800
7000
E000
0000
0000
0000
0000
7C00
7C00
7C00
7C00
7C00
7C00
7C00
7C00
7C00
7C00
7C00
7C00
7C00
7C00
7C00
7C00
7C00
7C00
7C00
7C00
ENDCHAR
STARTCHAR 00EE
ENCODING 238
SWIDTH 275 0
DWIDTH 11 0
BBX 13 32 -1 0
BITMAP
0FC0
1FC0
1FE0
3DE0
38F0
7870
7038
E038
0000
0000
0000
0000
0F80
0F80
0F80
0F80
0F80
0F80
0F80
0F80
0F80
0F80
0F80
0F80
0F80
0F80
0F80
0F80
0F80
0F80
0F80
0F80
ENDCHAR
STARTCHAR 00EF
ENCODING 239
SWIDTH 275 0
DWIDTH 11 0
BBX 13 31 -1 0
BITMAP
F078
F078
F078
F078
F078
0000
0000
0000
0000
0000
0000
0F80
0F80
0F80
0F80
0F80
0F80
0F80
0F80
0F80
0F80
0F80
0F80
0F80
0F80
0F80
0F80
0F80
0F80
0F80
0F80
ENDCHAR
STARTCHAR 00F0
ENCODING 240
SWIDTH 600 0
DWIDTH 24 0
BBX 20 31 2 0
BITMAP
000060
07C1E0
03F7E0
01FF80
00FE00
00FE00
03FE00
0F9F00
1E0F80
180F80
0007C0
07FFC0
0FFFE0
3FFFE0
3F0FF0
7E03F0
7C03F0
FC01F0
FC01F0
FC01F0
F801F0
F801F0
FC01F0
FC01F0
FC01F0
7C03F0
7E03E0
3F0FE0
1FFFC0
0FFF80
07FE00
ENDCHAR
STARTCHAR 00F1
ENCODING 241
SWIDTH 600 0
DWIDTH 24 0
BBX 18 30 3 0
BITMAP
078600
0FFE00
0FFE00
1FFC00
180000
000000
000000
000000
000000
000000
F9FF00
FBFF80
FBFFC0
FF1FC0
FE0FC0
FC07C0
FC07C0
FC07C0
F807C0
F807C0
F807C0
F807C0
F807C0
F807C0
F807C0
F807C0
F807C0
F807C0
F807C0
F807C0
ENDCHAR
STARTCHAR 00F2
ENCODING 242
SWIDTH 600 0
DWIDTH 24 0
BBX 20 32 2 0
BITMAP
0F8000
078000
07C000
03C000
01E000
00E000
007000
007000
000000
000000
000000
000000
03FE00
0FFF00
1FFFC0
3F0FC0
7E03E0
7C03F0
FC01F0
FC01F0
FC01F0
F801F0
F801F0
F801F0
FC01F0
FC01F0
7C03F0
7E03E0
3F0FC0
1FFFC0
0FFF00
03FE00
ENDCHAR
STARTCHAR 00F3
ENCODING 243
SWIDTH 600 0
DWIDTH 24 0
BBX 20 32 2 0
BITMAP
000F80
001F00
001E00
003C00
003800
007800
007000
00E000
000000
000000
000000
000000
03FE00
0FFF00
1FFFC0
3F0FC0
7E03E0
7C03F0
FC01F0
FC01F0
FC01F0
F801F0
F801F0
F801F0
FC01F0
FC01F0
7C03F0
7E03E0
3F0FC0
1FFFC0
0FFF00
03FE00
ENDCHAR
STARTCHAR 00F4
ENCODING 244
SWIDTH 600 0
DWIDTH 24 0
BBX 20 32 2 0
BITMAP
01F800
01FC00
03FC00
03DE00
079E00
070F00
0E0700
0E0380
000000
000000
000000
000000
03FE00
0FFF00
1FFFC0
3F0FC0
7E03E0
7C03F0
FC01F0
FC01F0
FC01F0
F801F0
F801F0
F801F0
FC01F0
FC01F0
7C03F0
7E03E0
3F0FC0
1FFFC0
0FFF00
03FE00
ENDCHAR
STARTCHAR 00F5
ENCODING 245
SWIDTH 600 0
DWIDTH 24 0
BBX 20 31 2 0
BITMAP
000180
03C300
07FF00
07FF00
0FFE00
0C0000
000000
000000
000000
000000
000000
03FE00
0FFF00
1FFFC0
3F0FC0
7E03E0
7C03F0
FC01F0
FC01F0
FC01F0
F801F0
F801F0
F801F0
FC01F0
FC01F0
7C03F0
7E03E0
3F0FC0
1FFFC0
0FFF00
03FE00
ENDCHAR
STARTCHAR 00F6
ENCODING 246
SWIDTH 600 0
DWIDTH 24 0
BBX 20 31 2 0
BITMAP
0F0780
0F0780
0F0780
0F0780
0F0780
000000
000000
000000
000000
000000
000000
03FE00
0FFF00
1FFFC0
3F0FC0
7E03E0
7C03F0
FC01F0
FC01F0
FC01F0
F801F0
F801F0
F801F0
FC01F0
FC01F0
7C03F0
7E03E0
3F0FC0
1FFFC0
0FFF00
03FE00
ENDCHAR
STARTCHAR 00F7
ENCODING 247
SWIDTH 1000 0
DWIDTH 40 0
BBX 24 19 8 2
BITMAP
001000
003800
007C00
007C00
007C00
000000
000000
000000
FFFFFF
FFFFFF
FFFFFF
000000
000000
000000
003800
007C00
007C00
007C00
003800
ENDCHAR
STARTCHAR 00F8
ENCODING 248
SWIDTH 600 0
DWIDTH 24 0
BBX 21 26 1 -2
BITMAP
000038
000078
000070
01FFE0
07FFE0
0FFFE0
1F87E0
3F07F0
3E0FF8
7E0EF8
7E1CF8
7E38F8
7C78F8
7C70F8
7EE0F8
7FC0F8
3FC1F8
3F81F8
3F03F0
1F87E0
1FFFE0
1FFFC0
39FF00
780000
F00000
600000
ENDCHAR
STARTCHAR 00F9
ENCODING 249
SWIDTH 600 0
DWIDTH 24 0
BBX 18 32 3 0
BITMAP
1F0000
0F0000
0F8000
078000
03C000
01C000
00E000
00E000
000000
000000
000000
000000
F807C0
F807C0
F807C0
F807C0
F807C0
F807C0
F807C0
F807C0
F807C0
F807C0
F807C0
F807C0
F807C0
FC07C0
FC0FC0
FC0FC0
FE1FC0
7FFFC0
3FF7C0
1FE7C0
ENDCHAR
STARTCHAR 00FA
ENCODING 250
SWIDTH 600 0
DWIDTH 24 0
BBX 18 32 3 0
BITMAP
003E00
003C00
007C00
007800
00F000
00E000
01E000
01C000
000000
000000
000000
000000
F807C0
F807C0
F807C0
F807C0
F807C0
F807C0
F807C0
F807C0
F807C0
F807C0
F807C0
F807C0
F807C0
FC07C0
FC0FC0
FC0FC0
FE1FC0
7FFFC0
3FF7C0
1FE7C0
ENDCHAR
STARTCHAR 00FB
ENCODING 251
SWIDTH 600 0
DWIDTH 24 0
BBX 18 32 3 0
BITMAP
03F000
03F800
07F800
07BC00
0F3C00
0E1E00
1E0E00
1C0600
000000
000000
000000
000000
F807C0
F807C0
F807C0
F807C0
F807C0
F807C0
F807C0
F807C0
F807C0
F807C0
F807C0
F807C0
F807C0
FC07C0
FC0FC0
FC0FC0
FE1FC0
7FFFC0
3FF7C0
1FE7C0
ENDCHAR
STARTCHAR 00FC
ENCODING 252
SWIDTH 600 0
DWIDTH 24 0
BBX 18 31 3 0
BITMAP
1E1E00
1E1E00
1E1E00
1E1E00
1E1E00
000000
000000
000000
000000
000000
000000
F807C0
F807C0
F807C0
F807C0
F807C0
F807C0
F807C0
F807C0
F807C0
F807C0
F807C0
F807C0
F807C0
FC07C0
FC0FC0
FC0FC0
FE1FC0
7FFFC0
3FF7C0
1FE7C0
ENDCHAR
STARTCHAR 00FD
ENCODING 253
SWIDTH 550 0
DWIDTH 22 0
BBX 21 41 1 -8
BITMAP
0007C0
000F80
000F00
001E00
001E00
003C00
003800
007000
000000
000000
000000
000000
000000
FC01F8
FC03F0
7E03F0
7E03E0
3F07E0
3F07E0
3F07C0
1F8FC0
1F8FC0
0F8F80
0FDF80
0FDF80
07DF00
07FF00
03FF00
03FE00
03FE00
01FC00
01FC00
00FC00
00F800
01F800
21F800
73F000
FFF000
FFE000
7FC000
1F8000
ENDCHAR
STARTCHAR 00FE
ENCODING 254
SWIDTH 625 0
DWIDTH 25 0
BBX 20 38 3 -8
BITMAP
F80000
F80000
F80000
F80000
F80000
F80000
F80000
F80000
F80000
F80000
F9FE00
FBFF80
FBFFC0
FF0FC0
FE07E0
FC03E0
FC03F0
FC03F0
FC03F0
F801F0
F801F0
FC03F0
FC03F0
FC03F0
FC03E0
FE07E0
FF0FC0
FFFFC0
FBFF80
F9FE00
F80000
F80000
F80000
F80000
F80000
F80000
F80000
F80000
ENDCHAR
STARTCHAR 00FF
ENCODING 255
SWIDTH 525 0
DWIDTH 21 0
BBX 21 39 0 -8
BITMAP
0F0780
0F0780
0F0780
0F0780
0F0780
000000
000000
000000
000000
000000
000000
FC01F8
FC01F8
7E01F0
7E03F0
3F03E0
3F03E0
3F07E0
1F87C0
1F8FC0
0FCFC0
0FCF80
0FDF80
07FF80
07FF00
03FF00
03FF00
03FE00
01FE00
01FC00
00FC00
00FC00
01F800
01F800
01F800
03F000
03F000
07F000
07E000
ENDCHAR
STARTCHAR 0131
ENCODING 305
SWIDTH 275 0
DWIDTH 11 0
BBX 5 20 3 0
BITMAP
F8
F8
F8
F8
F8
F8
F8
F8
F8
F8
F8
F8
F8
F8
F8
F8
F8
F8
F8
F8
ENDCHAR
STARTCHAR 0141
ENCODING 321
SWIDTH 650 0
DWIDTH 26 0
BBX 23 30 1 0
BITMAP
0F8000
0F8000
0F8000
0F8000
0F8600
0F8E00
0F9E00
0FBE00
0FFE00
0FF800
0FF000
0FE000
0FC000
0F8000
0F8000
1F8000
3F8000
7F8000
FF8000
FF8000
EF8000
CF8000
8F8000
0F8000
0F8000
0FFFFE
0FFFFE
0FFFFE
0FFFFE
0FFFFE
ENDCHAR
STARTCHAR 0142
ENCODING 322
SWIDTH 350 0
DWIDTH 14 0
BBX 12 30 1 0
BITMAP
1F00
1F00
1F00
1F00
1F00
1F00
1F10
1F30
1F70
1FF0
1FF0
1FE0
1FC0
1F80
3F00
7F00
FF00
FF00
FF00
DF00
9F00
1F00
1F00
1F00
1F00
1F00
1F00
1F00
1F00
1F00
ENDCHAR
STARTCHAR 0152
ENCODING 338
SWIDTH 1025 0
DWIDTH 41 0
BBX 37 30 2 1
BITMAP
00FFFFFFF0
03FFFFFFF0
07FFFFFFF0
0FFFFFFFF0
1FFFFFFFF0
3FC07C0000
3F007C0000
7F007C0000
7E007C0000
7E007C0000
FC007C0000
FC007C0000
FC007C0000
FC007FFFF0
FC007FFFF0
FC007FFFF0
FC007FFFF0
FC007C0000
FC007C0000
FC007C0000
7E007C0000
7E007C0000
7F007C0000
3F007C0000
3FC07C0000
1FFFFFFFF8
0FFFFFFFF8
07FFFFFFF8
03FFFFFFF8
00FFFFFFF8
ENDCHAR
STARTCHAR 0153
ENCODING 339
SWIDTH 925 0
DWIDTH 37 0
BBX 33 20 2 1
BITMAP
03FE1FF000
0FFF3FFC00
1FFFFFFE00
3F0FFC3E00
7E03F81F00
7C03F01F00
FC01F00F80
FC01FFFF80
FC01FFFF80
F801FFFF80
F801FFFF80
FC01F00000
FC01F00000
FC01F00000
7C03F81F80
7E03F81F00
3F07FC3F00
1FFFFFFE00
0FFF3FFE00
03FE1FF800
ENDCHAR
STARTCHAR 0160
ENCODING 352
SWIDTH 675 0
DWIDTH 27 0
BBX 23 41 2 0
BITMAP
0701C0
078380
03C780
01EF00
01FF00
00FE00
00FE00
000000
000000
000000
000000
01FF80
07FFE0
0FFFF0
1FFFF0
3FFFF8
3F01F8
7E00FC
7E00FC
7C007C
7E0000
7E0000
3F8000
3FF000
1FFE00
0FFFC0
03FFF0
007FF8
0007FC
0001FC
00007E
00007E
F8003E
FC007E
FC007E
7E00FC
7FFFFC
3FFFF8
1FFFF0
0FFFE0
03FF80
ENDCHAR
STARTCHAR 0161
ENCODING 353
SWIDTH 525 0
DWIDTH 21 0
BBX 17 32 2 0
BITMAP
380E00
1C1E00
1E3C00
0F3C00
0FF800
07F800
07F000
03F000
000000
000000
000000
000000
0FFC00
3FFF00
7FFF00
7E1F80
7C0F80
7C0000
7E0000
7F8000
3FF800
3FFE00
07FF00
00FF80
001F80
F80F80
F80F80
FC0F80
7E1F80
7FFF00
3FFE00
1FFC00
ENDCHAR
STARTCHAR 0178
ENCODING 376
SWIDTH 675 0
DWIDTH 27 0
BBX 25 40 1 0
BITMAP
03C1E000
03C1E000
03C1E000
03C1E000
03C1E000
00000000
00000000
00000000
00000000
00000000
FE003F80
FE003F00
7F007F00
3F007E00
3F80FE00
1F80FC00
1FC1FC00
0FC1F800
0FE3F800
07E3F000
07E7E000
03F7E000
03F7C000
01FFC000
01FF8000
00FF8000
00FF0000
007F0000
007E0000
003E0000
003E0000
003E0000
003E0000
003E0000
003E0000
003E0000
003E0000
003E0000
003E0000
003E0000
ENDCHAR
STARTCHAR 017D
ENCODING 381
SWIDTH 650 0
DWIDTH 26 0
BBX 22 41 2 0
BITMAP
070380
078380
03C780
03CF00
01FF00
01FE00
00FE00
00FC00
000000
000000
000000
7FFFFC
7FFFFC
7FFFFC
7FFFFC
7FFFFC
0001FC
0003F8
0007F0
000FF0
001FE0
001FC0
003F80
007F80
00FF00
00FE00
01FC00
03FC00
07F800
07F000
0FE000
1FE000
3FC000
3F8000
7F0000
FF0000
FFFFFC
FFFFFC
FFFFFC
FFFFFC
FFFFFC
ENDCHAR
STARTCHAR 017E
ENCODING 382
SWIDTH 525 0
DWIDTH 21 0
BBX 17 32 2 0
BITMAP
381C00
1C1C00
1E3800
0E7800
0FF000
07F000
07F000
07E000
000000
000000
000000
000000
FFFF00
FFFF00
FFFF00
FFFF00
003F00
007E00
00FC00
01F800
03F000
07F000
0FE000
0FC000
1F8000
3F0000
7E0000
FC0000
FFFF80
FFFF80
FFFF80
FFFF80
ENDCHAR
STARTCHAR 0192
ENCODING 402
SWIDTH 525 0
DWIDTH 21 0
BBX 25 39 -3 -8
BITMAP
00007F80
0000FF80
0001FF80
0001F100
0003E000
0003E000
0003C000
0007C000
0007C000
0007C000
007FFC00
00FFFC00
00FFFC00
00FFF800
001F0000
001F0000
001F0000
001E0000
003E0000
003E0000
003E0000
003C0000
007C0000
007C0000
007C0000
00F80000
00F80000
00F80000
00F00000
01F00000
01F00000
01F00000
03E00000
03E00000
07C00000
7FC00000
FF800000
FF000000
FC000000
ENDCHAR
STARTCHAR 02C6
ENCODING 710
SWIDTH 325 0
DWIDTH 13 0
BBX 13 8 0 25
BITMAP
0F80
1FC0
1FC0
3FE0
3DE0
78F0
7070
E038
ENDCHAR
STARTCHAR 02C7
ENCODING 711
SWIDTH 325 0
DWIDTH 13 0
BBX 13 8 0 25
BITMAP
E038
F070
70F0
78E0
3DE0
3FC0
1FC0
1F80
ENDCHAR
STARTCHAR 02D8
ENCODING 728
SWIDTH 300 0
DWIDTH 12 0
BBX 12 6 0 25
BITMAP
C030
E070
FFF0
7FE0
3FC0
1F80
ENDCHAR
STARTCHAR 02D9
ENCODING 729
SWIDTH 125 0
DWIDTH 5 0
BBX 5 5 0 25
BITMAP
F8
F8
F8
F8
F8
ENDCHAR
STARTCHAR 02DA
ENCODING 730
SWIDTH 225 0
DWIDTH 9 0
BBX 9 10 0 25
BITMAP
1E00
7F00
6380
E180
C180
C180
C180
6380
7F00
1E00
ENDCHAR
STARTCHAR 02DB
ENCODING 731
SWIDTH 200 0
DWIDTH 8 0
BBX 7 10 0 -9
BITMAP
18
30
70
60
E0
E0
FE
FE
7E
3E
ENDCHAR
STARTCHAR 02DC
ENCODING 732
SWIDTH 325 0
DWIDTH 13 0
BBX 13 5 0 25
BITMAP
3C38
7FF8
7FF0
FFE0
C080
ENDCHAR
STARTCHAR 02DD
ENCODING 733
SWIDTH 325 0
DWIDTH 13 0
BBX 13 8 0 25
BITMAP
3CF8
3CF0
78F0
78E0
71C0
61C0
E180
C180
ENDCHAR
STARTCHAR 0394
ENCODING 916
SWIDTH 650 0
DWIDTH 26 0
BBX 25 28 0 0
BITMAP
00040000
00040000
000E0000
000E0000
001F0000
001F0000
003F0000
003F8000
00678000
0067C000
00E3C000
00C3E000
00C3E000
0181E000
0181F000
0300F000
0300F800
0600F800
06007800
0C007C00
0C003C00
18003E00
18001E00
30001F00
30001F00
60000F00
7FFFFF80
FFFFFF80
ENDCHAR
STARTCHAR 03A9
ENCODING 937
SWIDTH 800 0
DWIDTH 32 0
BBX 30 28 1 0
BITMAP
003FE000
00F87C00
03C00F00
07800780
0F0003C0
1E0001E0
3E0001F0
3C0001F0
7C0000F0
7C0000F8
7C0000F8
7C0000F8
7C0000F8
7C0000F8
7C0000F8
3C0000F0
3E0001F0
3E0001E0
1E0003E0
0F0003C0
07800F00
01E03E00
80703004
C030200C
FFF07FFC
FFF07FFC
FFF07FFC
FFF07FFC
ENDCHAR
STARTCHAR 03BC
ENCODING 956
SWIDTH 675 0
DWIDTH 27 0
BBX 23 28 3 -8
BITMAP
F807C0
F807C0
F807C0
F807C0
F807C0
F807C0
F807C0
F807C0
F807C0
F807C0
F807C0
F807C0
F807C0
F807C0
FC07C0
FC0FC0
FC1FE0
FFFFFE
FFFBFE
FFF3FE
F9E0FC
F80000
F80000
F80000
F80000
F80000
F80000
F80000
ENDCHAR
STARTCHAR 03C0
ENCODING 960
SWIDTH 575 0
DWIDTH 23 0
BBX 22 21 0 -1
BITMAP
0FFFFC
3FFFFC
3FFFFC
738300
438300
838300
038300
038700
038700
030700
070700
070700
070700
070700
070704
0F0704
1E078C
3E07F8
3E03F8
3E03F0
1C01E0
ENDCHAR
STARTCHAR 2013
ENCODING 8211
SWIDTH 500 0
DWIDTH 20 0
BBX 20 5 0 8
BITMAP
FFFFF0
FFFFF0
FFFFF0
FFFFF0
FFFFF0
ENDCHAR
STARTCHAR 2014
ENCODING 8212
SWIDTH 1000 0
DWIDTH 40 0
BBX 40 5 0 8
BITMAP
FFFFFFFFFF
FFFFFFFFFF
FFFFFFFFFF
FFFFFFFFFF
FFFFFFFFFF
ENDCHAR
STARTCHAR 2018
ENCODING 8216
SWIDTH 275 0
DWIDTH 11 0
BBX 9 10 1 20
BITMAP
0780
0F00
0F00
1F00
1E00
3E00
3E00
7C00
7C00
FC00
ENDCHAR
STARTCHAR 2019
ENCODING 8217
SWIDTH 275 0
DWIDTH 11 0
BBX 9 10 1 20
BITMAP
1F80
1F00
1F00
3E00
3E00
3C00
7C00
7800
7800
F000
ENDCHAR
STARTCHAR 201A
ENCODING 8218
SWIDTH 275 0
DWIDTH 11 0
BBX 9 10 1 -5
BITMAP
1F80
1F00
1F00
3E00
3E00
3C00
7C00
7800
7800
F000
ENDCHAR
STARTCHAR 201C
ENCODING 8220
SWIDTH 475 0
DWIDTH 19 0
BBX 17 10 1 20
BITMAP
078780
0F0F00
0F0F00
1F1F00
1E1E00
3E3E00
3E3E00
7C7E00
7C7C00
FC7C00
ENDCHAR
STARTCHAR 201D
ENCODING 8221
SWIDTH 475 0
DWIDTH 19 0
BBX 17 10 1 20
BITMAP
1F9F80
1F1F00
1F1F00
3E3E00
3E3E00
3C3C00
7C7C00
787800
787800
F0F000
ENDCHAR
STARTCHAR 201E
ENCODING 8222
SWIDTH 475 0
DWIDTH 19 0
BBX 17 10 1 -5
BITMAP
1F9F80
1F1F00
1F1F00
3E3E00
3E3E00
3C3C00
7C7C00
787800
787800
F0F000
ENDCHAR
STARTCHAR 2020
ENCODING 8224
SWIDTH 575 0
DWIDTH 23 0
BBX 19 36 2 -6
BITMAP
01F000
01F000
01F000
01F000
01F000
01F000
01F000
01F000
01F000
01F000
FFFFE0
FFFFE0
FFFFE0
FFFFE0
01F000
01F000
01F000
01F000
01F000
01F000
01F000
01F000
01F000
01F000
01F000
01F000
01F000
01F000
01F000
01F000
01F000
01F000
01F000
01F000
01F000
01F000
ENDCHAR
STARTCHAR 2021
ENCODING 8225
SWIDTH 550 0
DWIDTH 22 0
BBX 18 36 2 -6
BITMAP
03E000
03E000
03E000
03E000
03E000
03E000
03E000
03E000
03E000
03E000
FFFFC0
FFFFC0
FFFFC0
FFFFC0
03E000
03E000
03E000
03E000
03E000
03E000
03E000
03E000
03E000
FFFFC0
FFFFC0
FFFFC0
FFFFC0
03E000
03E000
03E000
03E000
03E000
03E000
03E000
03E000
03E000
ENDCHAR
STARTCHAR 2022
ENCODING 8226
SWIDTH 275 0
DWIDTH 11 0
BBX 9 9 1 9
BITMAP
3E00
7F00
FF80
FF80
FF80
FF80
FF80
7F00
3E00
ENDCHAR
STARTCHAR 2026
ENCODING 8230
SWIDTH 1025 0
DWIDTH 41 0
BBX 37 5 2 0
BITMAP
F800F801F8
F800F801F8
F800F801F8
F800F801F8
F800F801F8
ENDCHAR
STARTCHAR 2030
ENCODING 8240
SWIDTH 1425 0
DWIDTH 57 0
BBX 55 30 1 0
BITMAP
07E00078000000
1FF800F0000000
3FFC00F0000000
7C3E01E0000000
781E03E0000000
F00F03C0000000
F00F07C0000000
F00F0780000000
F00F0F00000000
F00F0F00000000
F00F1E00000000
F00F1E00000000
781E3C00000000
7C3E7C00000000
3FFC783F000FC0
1FF8F8FFC03FF0
07E0F1FFE07FF8
0001F3E1F0F87C
0001E3C0F0F03C
0003C78079E01E
0003C78079E01E
0007878079E01E
0007878079E01E
000F078079E01E
001F078079E01E
001E03C0F0F03C
003E03C0F0F03C
003C01F3E07CF8
007800FFC03FF0
0078007F801FE0
ENDCHAR
STARTCHAR 2039
ENCODING 8249
SWIDTH 375 0
DWIDTH 15 0
BBX 9 16 3 2
BITMAP
0F80
1F80
1F00
3F00
3E00
7E00
FC00
FC00
FC00
FC00
7E00
3E00
3F00
1F00
1F80
0F80
ENDCHAR
STARTCHAR 203A
ENCODING 8250
SWIDTH 375 0
DWIDTH 15 0
BBX 9 16 3 2
BITMAP
F800
FC00
7C00
7E00
3E00
3F00
1F00
1F80
1F80
1F00
3F00
3E00
7E00
7C00
FC00
F800
ENDCHAR
STARTCHAR 2044
ENCODING 8260
SWIDTH 575 0
DWIDTH 23 0
BBX 21 31 1 -1
BITMAP
000078
0000F0
0000F0
0001E0
0001E0
0003C0
0003C0
000780
000780
000F00
001E00
001E00
003C00
003C00
007800
007800
00F000
00F000
01E000
03C000
03C000
078000
078000
0F0000
0F0000
1E0000
1C0000
3C0000
780000
780000
F00000
ENDCHAR
STARTCHAR 2122
ENCODING 8482
SWIDTH 650 0
DWIDTH 26 0
BBX 22 11 2 18
BITMAP
FF3C3C
FF3C3C
183C3C
18366C
18366C
18366C
1837CC
1833CC
1833CC
1833CC
18318C
ENDCHAR
STARTCHAR 2202
ENCODING 8706
SWIDTH 525 0
DWIDTH 21 0
BBX 18 32 1 -1
BITMAP
0FC000
3FF000
183C00
000E00
000600
000700
000300
000380
000180
000180
0001C0
0001C0
0001C0
0001C0
01C1C0
0FF1C0
1F0DC0
3C07C0
7803C0
7803C0
7003C0
F00380
F00380
F00780
F00780
F00700
F00F00
700E00
701C00
383C00
1C7800
07E000
ENDCHAR
STARTCHAR 220F
ENCODING 8719
SWIDTH 850 0
DWIDTH 34 0
BBX 33 35 1 -4
BITMAP
FFFFFFFF80
3FFFFFFC00
1F8000F800
0F8000F800
0F8000F800
0F8000F800
0F8000F800
0F8000F800
0F8000F800
0F8000F800
0F8000F800
0F8000F800
0F8000F800
0F8000F800
0F8000F800
0F8000F800
0F8000F800
0F8000F800
0F8000F800
0F8000F800
0F8000F800
0F8000F800
0F8000F800
0F8000F800
0F8000F800
0F8000F800
0F8000F800
0F8000F800
0F8000F800
0F8000F800
0F8000F800
0F8000F800
0F8000F800
1FC001FC00
FFF80FFF80
ENDCHAR
STARTCHAR 2211
ENCODING 8721
SWIDTH 750 0
DWIDTH 30 0
BBX 28 35 1 -4
BITMAP
FFFFFF80
7FFFFF80
3E000780
1F000180
1F800080
0FC00080
07C00080
03E00000
03F00000
01F80000
00F80000
007C0000
007E0000
003F0000
001F0000
000F8000
000FC000
00078000
00030000
00070000
000E0000
001C0000
00180000
00300000
00600000
00C00000
01C00010
03800020
07000020
0E000060
0C0001E0
1FFFFFE0
3FFFFFC0
7FFFFFC0
FFFFFFC0
ENDCHAR
STARTCHAR 2212
ENCODING 8722
SWIDTH 1000 0
DWIDTH 40 0
BBX 24 3 8 11
BITMAP
FFFFFF
FFFFFF
FFFFFF
ENDCHAR
STARTCHAR 221A
ENCODING 8730
SWIDTH 575 0
DWIDTH 23 0
BBX 22 28 1 0
BITMAP
00001C
000030
000030
000020
000020
000060
000060
000040
0000C0
1800C0
780080
DC0080
0C0180
0E0180
060100
070100
038300
038300
01C200
01C600
00E600
00E600
007400
007C00
003C00
003800
001800
001800
ENDCHAR
STARTCHAR 221E
ENCODING 8734
SWIDTH 1000 0
DWIDTH 40 0
BBX 27 12 7 6
BITMAP
1F001E00
3FC07F80
70E0E1C0
E071C0C0
C01F0060
C00E0060
C00E0060
C01B0060
603980C0
70E0E1C0
3FC07F80
0F001E00
ENDCHAR
STARTCHAR 222B
ENCODING 8747
SWIDTH 475 0
DWIDTH 19 0
BBX 17 38 1 -8
BITMAP
001F00
003F80
007F80
006700
00E000
00E000
00E000
00E000
00C000
01C000
01C000
01C000
01C000
01C000
01C000
01C000
01C000
01C000
01C000
01C000
01C000
01C000
01C000
01C000
01C000
01C000
01C000
01C000
01C000
03C000
038000
038000
038000
038000
730000
FF0000
FE0000
780000
ENDCHAR
STARTCHAR 2248
ENCODING 8776
SWIDTH 1000 0
DWIDTH 40 0
BBX 24 12 8 5
BITMAP
0F8001
3FF807
FFFFBF
E01FFE
8003F0
000000
000000
1FC001
3FF807
FFFFBF
E01FFE
8003F0
ENDCHAR
STARTCHAR 2260
ENCODING 8800
SWIDTH 1000 0
DWIDTH 40 0
BBX 24 18 8 3
BITMAP
000018
000038
000070
0000E0
FFFFFF
FFFFFF
000700
000E00
001C00
003800
007000
00FFFF
FFFFFF
FFFFFF
070000
0E0000
1C0000
180000
ENDCHAR
STARTCHAR 2264
ENCODING 8804
SWIDTH 1000 0
DWIDTH 40 0
BBX 24 22 8 0
BITMAP
000007
00003F
0001FE
000FE0
007F00
03F800
3F8000
FC0000
E00000
FC0000
3F8000
03F800
007F00
000FE0
0001FE
00003F
000007
000000
000000
000000
FFFFFF
FFFFFF
ENDCHAR
STARTCHAR 2265
ENCODING 8805
SWIDTH 1000 0
DWIDTH 40 0
BBX 24 22 8 0
BITMAP
E00000
FC0000
7F8000
07F000
00FE00
001FC0
0001FC
00003F
000007
00003F
0001FC
001FE0
00FE00
07F000
7F8000
FC0000
E00000
000000
000000
000000
FFFFFF
FFFFFF
ENDCHAR
STARTCHAR 25CA
ENCODING 9674
SWIDTH 525 0
DWIDTH 21 0
BBX 19 31 1 0
BITMAP
00E000
00F000
01F000
01B800
039800
031C00
070C00
060600
0C0600
1C0300
180380
380180
3001C0
7000C0
6000E0
E00060
6000C0
3000C0
380180
180380
1C0300
0C0700
0E0600
060E00
070C00
031C00
039800
01B800
01F000
00F000
00E000
ENDCHAR
STARTCHAR FB01
ENCODING 64257
SWIDTH 650 0
DWIDTH 26 0
BBX 23 30 1 1
BITMAP
03FC7E
07FC7E
0FFC7E
0FC07E
0F807E
0F8000
0F8000
0F8000
0F8000
0F8000
FFF87C
FFF87C
FFF87C
FFF87C
0F807C
0F807C
0F807C
0F807C
0F807C
0F807C
0F807C
0F807C
0F807C
0F807C
0F807C
0F807C
0F807C
0F807C
0F807C
0F807C
ENDCHAR
STARTCHAR FB02
ENCODING 64258
SWIDTH 650 0
DWIDTH 26 0
BBX 22 30 1 1
BITMAP
03FC7C
07FC7C
0FFC7C
0FC47C
0F807C
0F807C
0F807C
0F807C
0F807C
0F807C
FFF87C
FFF87C
FFF87C
FFF87C
0F807C
0F807C
0F807C
0F807C
0F807C
0F807C
0F807C
0F807C
0F807C
0F807C
0F807C
0F807C
0F807C
0F807C
0F807C
0F807C
ENDCHAR
ENDFONT
